<?xml version="1.0" encoding="utf-8"?>
<!-- Generator: Adobe Illustrator 22.1.0, SVG Export Plug-In . SVG Version: 6.00 Build 0)  -->
<svg version="1.1" id="Layer_1" xmlns="http://www.w3.org/2000/svg" xmlns:xlink="http://www.w3.org/1999/xlink" x="0px" y="0px"
	 viewBox="0 0 125 40" style="enable-background:new 0 0 125 40;" xml:space="preserve">
<style type="text/css">
	.st0{fill:url(#SVGID_1_);}
</style>
<linearGradient id="SVGID_1_" gradientUnits="userSpaceOnUse" x1="1.467958e-04" y1="19.5" x2="125" y2="19.5">
	<stop  offset="0" style="stop-color:#FFFFFF"/>
	<stop  offset="0" style="stop-color:#004E7F"/>
	<stop  offset="1" style="stop-color:#B32C39"/>
	<stop  offset="1" style="stop-color:#FFDD00"/>
	<stop  offset="1" style="stop-color:#000000"/>
</linearGradient>
<path class="st0" d="M65.9,9.8c0,1.4-1.1,2.5-2.5,2.5c0,0,0,0,0,0c-1.4,0-2.5-1.1-2.5-2.5c0,0,0,0,0,0c0-1.4,1.1-2.5,2.5-2.5
	c0,0,0,0,0.1,0C64.8,7.3,65.9,8.4,65.9,9.8L65.9,9.8z M55.4,14.9v0.6c0,0-1.2-1.6-3.8-1.6c-4.3,0-7.6,3.2-7.6,7.7
	c0,4.4,3.3,7.7,7.6,7.7c2.6,0,3.8-1.6,3.8-1.6v0.7c0,0.3,0.2,0.5,0.5,0.5h3.2V14.4H56C55.7,14.4,55.4,14.6,55.4,14.9z M55.4,24.3
	c-0.6,0.9-1.8,1.6-3.2,1.6c-2.5,0-4.4-1.6-4.4-4.2s1.9-4.2,4.4-4.2c1.4,0,2.6,0.8,3.2,1.6V24.3z M61.5,14.4h3.7V29h-3.7
	C61.5,29,61.5,14.4,61.5,14.4z M117.5,14c-2.6,0-3.8,1.6-3.8,1.6V7.3h-3.7V29h3.2c0.3,0,0.5-0.2,0.5-0.5v-0.7c0,0,1.2,1.6,3.8,1.6
	c4.3,0,7.6-3.3,7.6-7.7C125,17.3,121.7,14,117.5,14z M116.8,25.9c-1.4,0-2.6-0.7-3.2-1.6V19c0.6-0.8,1.8-1.6,3.2-1.6
	c2.5,0,4.4,1.6,4.4,4.2C121.3,24.3,119.3,25.9,116.8,25.9L116.8,25.9z M108,20.3v8.7h-3.8v-8.3c0-2.4-0.8-3.4-2.9-3.4
	c-1.1,0-2.3,0.6-3,1.4V29h-3.7V14.4h3c0.3,0,0.5,0.3,0.5,0.5v0.6c1.1-1.1,2.5-1.6,4-1.6c1.6,0,3,0.5,4.1,1.4
	C107.5,16.5,108,17.9,108,20.3L108,20.3z M85.4,14c-2.6,0-3.8,1.6-3.8,1.6V7.3h-3.7V29h3.2c0.3,0,0.5-0.2,0.5-0.5v-0.7
	c0,0,1.2,1.6,3.8,1.6c4.3,0,7.6-3.3,7.6-7.7C93,17.3,89.7,14,85.4,14z M84.8,25.9c-1.4,0-2.6-0.7-3.2-1.6V19
	c0.6-0.8,1.8-1.6,3.2-1.6c2.5,0,4.4,1.6,4.4,4.2C89.2,24.3,87.3,25.9,84.8,25.9L84.8,25.9z M74.7,14c1.1,0,1.7,0.2,1.7,0.2v3.5
	c0,0-3.1-1.1-5.1,1.2v10.3h-3.8V14.4h3.2c0.3,0,0.5,0.3,0.5,0.5v0.6C72,14.7,73.5,14,74.7,14z M35.7,27.7c-0.2-0.5-0.4-1-0.6-1.4
	c-0.3-0.7-0.6-1.4-0.9-2l0,0c-2.7-5.9-5.6-11.8-8.6-17.6l-0.1-0.2c-0.3-0.6-0.6-1.2-0.9-1.8c-0.4-0.7-0.8-1.4-1.4-2.1
	c-1.3-1.6-3-2.4-5-2.4c-2,0-3.7,0.9-5,2.3c-0.6,0.7-1,1.4-1.4,2.1c-0.3,0.6-0.6,1.2-0.9,1.8l-0.1,0.2c-3,5.9-5.9,11.8-8.6,17.6
	l0,0.1c-0.3,0.6-0.6,1.3-0.9,2c-0.2,0.4-0.4,0.9-0.6,1.4c-0.5,1.4-0.7,2.8-0.5,4.2c0.4,2.9,2.4,5.4,5.1,6.5c1,0.4,2.1,0.6,3.2,0.6
	c0.3,0,0.7,0,1-0.1c1.3-0.2,2.6-0.6,3.9-1.3c1.6-0.9,3.1-2.2,4.8-4.1c1.7,1.9,3.3,3.2,4.8,4.1c1.3,0.7,2.6,1.2,3.9,1.3
	c0.3,0,0.7,0.1,1,0.1c1.1,0,2.2-0.2,3.2-0.6c2.7-1.1,4.6-3.6,5.1-6.5C36.4,30.5,36.2,29.2,35.7,27.7z M18.1,29.7
	c-2.1-2.7-3.5-5.2-3.9-7.3c-0.2-0.9-0.2-1.7-0.1-2.4c0.1-0.6,0.3-1.1,0.6-1.6c0.7-1.1,2-1.7,3.4-1.7s2.7,0.6,3.4,1.7
	c0.3,0.5,0.5,1,0.6,1.6c0.1,0.7,0.1,1.5-0.1,2.4C21.6,24.6,20.2,27.1,18.1,29.7L18.1,29.7z M33.7,31.6c-0.3,2-1.6,3.8-3.6,4.6
	c-0.9,0.4-2,0.5-3,0.4c-1-0.1-2-0.4-3-1c-1.4-0.8-2.8-2-4.5-3.8c2.6-3.2,4.1-6.1,4.7-8.6c0.3-1.1,0.3-2.2,0.2-3.3
	c-0.1-1-0.5-1.9-1.1-2.7c-1.2-1.8-3.2-2.8-5.5-2.8c-2.3,0-4.3,1.1-5.5,2.8c-0.5,0.8-0.9,1.7-1.1,2.7c-0.2,1.1-0.1,2.2,0.2,3.3
	c0.6,2.6,2.2,5.5,4.7,8.7c-1.6,1.8-3,3-4.5,3.8c-1,0.6-2,0.9-3,1c-1,0.1-2,0-3-0.4c-1.9-0.8-3.3-2.5-3.6-4.6c-0.1-1,0-2.1,0.4-3
	c0.1-0.4,0.3-0.8,0.5-1.3c0.3-0.6,0.6-1.3,0.9-2l0-0.1c2.7-5.9,5.6-11.8,8.6-17.5L13,7.5C13.4,7,13.7,6.3,14,5.7
	c0.3-0.6,0.7-1.2,1.1-1.7c0.8-0.9,1.9-1.4,3.1-1.4c1.2,0,2.3,0.5,3.1,1.4c0.4,0.5,0.8,1.1,1.1,1.7C22.7,6.3,23,7,23.4,7.5l0.1,0.2
	c3,5.8,5.8,11.7,8.6,17.6v0c0.3,0.6,0.6,1.3,0.9,2c0.2,0.5,0.4,0.9,0.5,1.2C33.7,29.6,33.9,30.6,33.7,31.6z"/>
</svg>
