<svg width="610" height="395" xmlns="http://www.w3.org/2000/svg" xmlns:xlink="http://www.w3.org/1999/xlink">  <defs>    <linearGradient x1="50%" y1="0%" x2="50%" y2="98.514%" id="b">      <stop stop-color="#F5F6F7" offset="0%"/>      <stop stop-color="#F5F6F7" stop-opacity="0" offset="100%"/>    </linearGradient>    <path d="M9.872 310.115c-26.698 21.55 5.727 66.946 16.25 97.516.115.34.24.675.357 1.015.54 1.55 1.076 3.103 1.64 4.642a297.11 297.11 0 0 0 9.106 22.345c8.066 17.72 91.763-158.776 29.738 51.347-62.025 210.124 90.866-78.269 104.791-65.265 13.942 12.988-37.04 133.874-20.63 144.166 17.058 10.642 33.83 18.564 49.648 24.663 1.976.761 3.907 1.574 5.856 2.27l5.813 1.971c3.834 1.282 7.537 2.654 11.255 3.64l6.146 1.777c2.048.567 4.06 1.241 6.126 1.678l12.233 2.886c16.352 3.385 32.46 5.312 48.044 6.141 4.097.123 7.934.237 11.6.348 1.835.1 3.627-.019 5.387-.03l5.197-.098c6.84.025 13.325-.632 20.216-1.02 1.698-.07 3.38-.327 5.074-.506l5.086-.584c3.395-.395 6.812-.723 10.193-1.358l10.202-1.698c3.396-.64 6.765-1.453 10.159-2.179l5.042-1.114c1.682-.415 3.357-.908 5.047-1.364 3.373-.94 6.776-1.854 10.134-2.833l9.833-3.29c1.604-.563 3.22-1.035 4.758-1.658l4.553-1.798c23.782-9.349 40.373-19.145 52.658-26.92 1.49-.955 2.937-1.88 4.34-2.78 1.409-.89 2.774-1.756 4.037-2.683 2.562-1.802 4.96-3.49 7.206-5.068l3.252-2.288 2.929-2.26c1.882-1.45-164.003-100.646-162.398-101.882 13.062-10.306 193.649 75.721 205.843 62.064l4.537-5.175c.748-.879 1.546-1.719 2.256-2.635l2.159-2.727 3.83-4.844c1.257-1.614 2.568-3.17 3.708-4.838l6.82-9.54c2.163-3.193 4.17-6.423 6.215-9.56 7.895-12.724 14.65-25.122 19.844-37.123l2-4.424c.69-1.448 1.198-2.955 1.796-4.407l3.374-8.589c.269-.702.562-1.392.805-2.095l.707-2.105 1.388-4.14c.903-2.732 1.823-5.386 2.643-8 1.453-5.278 2.92-10.258 4.126-14.998l3.01-13.434c1.437-8.442 2.785-15.635 3.305-21.573l.864-7.848c.21-2.272.249-4.206.335-5.764.136-3.122.15-4.776.036-4.854-.114-.079-.351 1.42-.7 4.376l-.618 5.512-1.151 7.573-.671 4.541c-.116.798-.236 1.616-.36 2.455-.138.836-.323 1.686-.49 2.558l-2.221 11.397c-.893 4.086-2.038 8.433-3.147 13.085-.515 2.337-1.267 4.688-1.981 7.122l-2.22 7.502c-.188.643-.38 1.29-.57 1.941-.222.641-.444 1.287-.67 1.936l-1.375 3.941-2.855 8.163-3.401 8.378c-.58 1.425-1.164 2.866-1.755 4.321-.578 1.46-1.306 2.874-1.963 4.335l-4.124 8.888c-1.462 2.987-3.096 5.96-4.676 9.021l-2.42 4.62a8890.14 8890.14 0 0 0-2.68 4.575l-2.725 4.648c-.932 1.551-1.791 3.164-2.831 4.683l-2.378 3.647c29.442-46.359 46.503-101.354 46.503-160.338 0-165.409-134.091-299.5-299.5-299.5-165.41 0-73.404 117-299.5 299.5z" id="a"/>  </defs>  <use fill="url(#b)" transform="rotate(90 305.5 305.847)" xlink:href="#a" fill-rule="evenodd"/></svg>