<?xml version="1.0" encoding="utf-8"?>
<!-- Generator: Adobe Illustrator 22.1.0, SVG Export Plug-In . SVG Version: 6.00 Build 0)  -->
<svg version="1.1" id="Layer_1" xmlns="http://www.w3.org/2000/svg" xmlns:xlink="http://www.w3.org/1999/xlink" x="0px" y="0px"
	 viewBox="0 0 124 40" style="enable-background:new 0 0 124 40;" xml:space="preserve">
<style type="text/css">
	.st0{fill:url(#SVGID_1_);}
</style>
<linearGradient id="SVGID_1_" gradientUnits="userSpaceOnUse" x1="0.115" y1="20.0351" x2="123.912" y2="20.0351">
	<stop  offset="0" style="stop-color:#004E7F"/>
	<stop  offset="1" style="stop-color:#B32C39"/>
</linearGradient>
<path class="st0" d="M63.8,19.7c-1,0-1.8,0.3-2.5,0.7v7.5c0.7,0.1,1.1,0.1,1.8,0.1c2.5,0,2.8-1.1,2.8-2.6v-3.6
	C65.9,20.6,65.6,19.7,63.8,19.7z M47.6,19.3c-1.7,0-2.1,0.9-2.1,2v0.6h4.2v-0.6C49.6,20.2,49.3,19.3,47.6,19.3z M16,27.1
	c0,0.9,0.4,1.4,1.4,1.4c1,0,1.6-0.3,2.4-0.7V26h-2.2C16.5,26,16,26.2,16,27.1z M79.7,19.7c-1.7,0-2.3,0.9-2.3,2v4.1
	c0,1.1,0.6,2,2.3,2c1.7,0,2.3-0.9,2.3-2v-4.1C82,20.6,81.4,19.7,79.7,19.7z M7.6,31.7h-5V19.9H0.1v-4.1h2.5v-2.4
	c0-3.3,1.4-5.3,5.4-5.3h3.3v4.1H9.3c-1.6,0-1.7,0.6-1.7,1.6l0,2h3.8L11,19.9H7.6V31.7z M24.8,31.7h-4.2l-0.2-1
	c-1.5,0.8-3.1,1.2-4.7,1.2c-3.1,0-4.7-2-4.7-4.7c0-3.2,1.9-4.4,5.3-4.4h3.5v-0.7c0-1.7-0.2-2.1-2.8-2.1h-4.3l0.4-4.1h4.7
	c5.8,0,7,1.8,7,6.2C24.8,22.1,24.8,31.7,24.8,31.7z M39,20.2c-2.6-0.4-3.3-0.5-4.6-0.5c-2.2,0-2.9,0.5-2.9,2.3v3.5
	c0,1.9,0.7,2.3,2.9,2.3c1.3,0,2-0.1,4.6-0.5v4c-2.3,0.5-3.8,0.6-5,0.6c-5.4,0-7.5-2.8-7.5-6.7v-2.8c0-4,2.1-6.7,7.5-6.7
	c1.3,0,2.7,0.1,5,0.6C39,16.3,39,20.2,39,20.2z M54.7,25.2h-9.2v0.3c0,1.9,0.7,2.3,2.9,2.3c2,0,3.3-0.1,5.8-0.5v4
	c-2.5,0.5-3.8,0.6-6.3,0.6c-5.4,0-7.5-2.8-7.5-6.7v-3.3c0-3.5,1.6-6.3,7.1-6.3s7.1,2.8,7.1,6.3V25.2z M70.9,25.3
	c0,3.8-1.1,6.6-8,6.6c-2.5,0-3.9-0.2-6.6-0.6V9.4l5-0.8v7.7c1.1-0.4,2.5-0.6,3.8-0.6c5,0,5.8,2.2,5.8,5.7
	C70.9,21.3,70.9,25.3,70.9,25.3z M87,25.4c0,3.3-1.4,6.5-7.3,6.5c-5.9,0-7.3-3.2-7.3-6.5v-3.2c0-3.3,1.4-6.5,7.3-6.5
	c5.9,0,7.3,3.2,7.3,6.5V25.4z M103.1,25.4c0,3.3-1.4,6.5-7.3,6.5c-5.9,0-7.3-3.2-7.3-6.5v-3.2c0-3.3,1.4-6.5,7.3-6.5
	c5.9,0,7.3,3.2,7.3,6.5V25.4z M119.5,31.7h-5.4l-4.6-7.4v7.4h-5V9.4l5-0.8v14.4l4.6-7.1h5.4l-5,7.7
	C114.5,23.6,119.5,31.7,119.5,31.7z M95.8,19.7c-1.7,0-2.3,0.9-2.3,2v4.1c0,1.1,0.6,2,2.3,2c1.7,0,2.3-0.9,2.3-2v-4.1
	C98.1,20.6,97.5,19.7,95.8,19.7z M122.4,28.9c0.8,0,1.5,0.7,1.5,1.5c0,0.8-0.7,1.5-1.5,1.5c-0.8,0-1.5-0.7-1.5-1.5c0,0,0,0,0,0
	C120.9,29.6,121.5,28.9,122.4,28.9C122.4,28.9,122.4,28.9,122.4,28.9z M122.4,29.2c-0.7,0-1.2,0.6-1.2,1.3c0,0.7,0.6,1.3,1.2,1.3
	c0.7,0,1.2-0.6,1.2-1.3S123.1,29.2,122.4,29.2C122.4,29.2,122.4,29.2,122.4,29.2z M122.1,31.3h-0.3v-1.7c0.1,0,0.3,0,0.5,0
	c0.3,0,0.4,0.1,0.5,0.1c0.1,0.1,0.2,0.2,0.2,0.3c0,0.2-0.2,0.4-0.3,0.4v0c0.2,0,0.3,0.2,0.3,0.4c0,0.3,0.1,0.4,0.1,0.4h-0.3
	c0-0.1-0.1-0.2-0.1-0.4c0-0.2-0.2-0.3-0.4-0.3h-0.2C122.1,30.6,122.1,31.3,122.1,31.3z M122.1,30.4h0.2c0.2,0,0.4-0.1,0.4-0.3
	c0-0.1-0.1-0.3-0.4-0.3c-0.1,0-0.2,0-0.2,0L122.1,30.4L122.1,30.4z"/>
</svg>
