<?xml version="1.0" encoding="utf-8"?>
<!-- Generator: Adobe Illustrator 22.1.0, SVG Export Plug-In . SVG Version: 6.00 Build 0)  -->
<svg version="1.1" id="Layer_1" xmlns="http://www.w3.org/2000/svg" xmlns:xlink="http://www.w3.org/1999/xlink" x="0px" y="0px"
	 viewBox="0 0 1440 274" style="enable-background:new 0 0 1440 274;" xml:space="preserve">
<style type="text/css">
	.st0{fill:url(#SVGID_1_);}
	.st1{fill:url(#SVGID_2_);}
	.st2{fill:url(#SVGID_3_);}
	.st3{fill:url(#SVGID_4_);}
	.st4{fill:url(#SVGID_5_);}
</style>
<linearGradient id="SVGID_1_" gradientUnits="userSpaceOnUse" x1="0.9547" y1="-258.338" x2="2.0096" y2="-258.338" gradientTransform="matrix(530.9996 0 0 468.07 530.7744 121223.4844)">
	<stop  offset="0" style="stop-color:#55FBDC"/>
	<stop  offset="0" style="stop-color:#B32C39;stop-opacity:0.8"/>
	<stop  offset="1" style="stop-color:#004E7F"/>
</linearGradient>
<path class="st0" d="M1416.8,523.8c0.4-0.1,0.7-0.2,1.1-0.3C1417.6,523.6,1417.2,523.7,1416.8,523.8L1416.8,523.8z M1409.4,72.7
	c23.3-14.1,49.5,18.9,70.4,33.5c0.2,0.2,0.5,0.3,0.7,0.5c1.1,0.7,2.1,1.5,3.2,2.3c5.1,3.7,10.1,7.6,15,11.7
	c11.7,10-140.2,34.9,32.5,33.6c172.7-1.2-79,51.7-72.2,65c6.8,13.4,109.5,1.1,113.7,15.7c4.4,15.2,6.7,29.6,7.9,42.9
	c0.1,1.7,0.3,3.3,0.4,4.9l0.2,4.8c0.1,3.2,0.4,6.3,0.3,9.3v5c0,1.7,0.1,3.3-0.1,5l-0.5,9.9c-1,13.1-3,25.7-5.8,37.7
	c-0.8,3.1-1.5,6-2.3,8.8c-0.3,1.4-0.8,2.7-1.2,4.1l-1.2,3.9c-1.5,5.2-3.4,9.9-5.2,15.1c-0.4,1.3-1,2.5-1.5,3.7l-1.5,3.7
	c-1,2.5-2,5-3.2,7.4l-3.5,7.3c-1.2,2.4-2.6,4.8-3.9,7.2l-1.9,3.6c-0.7,1.2-1.4,2.3-2.1,3.5c-1.4,2.3-2.9,4.7-4.3,7l-4.6,6.7
	c-0.8,1.1-1.5,2.2-2.3,3.2l-2.3,3.1c-12.2,15.9-23.3,26.4-31.8,34l-3,2.7c-1,0.9-1.9,1.7-2.9,2.5l-5.4,4.3l-2.4,2l-2.3,1.7
	c-1.5,1.1-40.7-145.9-42-144.9c-10.6,7.6,15.4,162.9,2.4,169.1l-4.9,2.3c-0.8,0.4-1.6,0.8-2.5,1.1l-2.5,1l-4.5,1.8
	c-1.5,0.6-3,1.3-4.5,1.8l-8.7,3.1c-2.9,0.9-5.8,1.8-8.6,2.6c-11.4,3.2-22.2,5.6-32.4,6.9c-1.3,0.2-2.5,0.4-3.8,0.5
	c-1.2,0.2-2.5,0.3-3.7,0.4l-7.2,0.7c-0.6,0-1.2,0.1-1.8,0.2l-1.7,0.1l-3.4,0.2c-2.3,0.1-4.5,0.2-6.6,0.3c-4.3,0-8.4,0-12.3-0.1
	l-10.8-0.6c-6.7-0.7-12.5-1.3-17.1-2.2l-6.1-1.1c-1.8-0.3-3.2-0.7-4.4-1c-2.4-0.6-3.7-0.9-3.7-1s1.2,0,3.5,0.4l4.3,0.7l6,0.8
	l3.6,0.5l1.9,0.3c0.7,0.1,1.3,0.1,2,0.2l9.1,0.8c3.3,0.2,6.8,0.3,10.6,0.5c1.9,0.1,3.8,0.1,5.8,0h6.2h1.6l1.6-0.1l3.3-0.2l6.8-0.4
	l7.1-0.8c1.2-0.1,2.4-0.3,3.7-0.4c1.2-0.1,2.5-0.4,3.7-0.5l7.6-1.2c2.6-0.5,5.2-1,7.9-1.6c1.3-0.3,2.7-0.5,4-0.8l4.1-1
	c1.4-0.3,2.7-0.7,4.1-1c1.4-0.4,2.8-0.7,4.2-1.1l3.3-1c-41.5,12.2-86.9,13.1-131.6,0.3c-125.4-36-314.4-391.1-162.1-291.5
	S1283.9,148.7,1409.4,72.7L1409.4,72.7z"/>
<linearGradient id="SVGID_2_" gradientUnits="userSpaceOnUse" x1="1317.8738" y1="209.4789" x2="1345.354" y2="225.3446" gradientTransform="matrix(1 0 0 -1 0 276)">
	<stop  offset="0" style="stop-color:#B32C39;stop-opacity:0.8"/>
	<stop  offset="1" style="stop-color:#004E7F"/>
</linearGradient>
<path class="st1" d="M1340.2,56.2c0.1,0.8,0.2,1.6,0.2,2.5c0,0.8-0.2,1.7-0.5,2.5c0,0.1-0.4,0-0.3-0.1c0.2-0.8,0.5-1.6,0.5-2.4
	c0.1-0.8,0-1.6-0.2-2.4c-0.4-1.2-1.2-2.1-2-2.9c1.4,2.1,1.8,4.8,0.7,7.4c-1.7,3.9-6,5.8-9.8,4.2s-5.5-6-3.8-9.9
	c0.5-1.2,1.3-2.2,2.2-3c-0.6,0.3-1,0.6-1.5,1.1c-1,1.1-1.8,2.6-2.1,4.2c-0.4,1.6-0.1,3.3,0.4,4.9c0.3,0.8,0.7,1.6,1.3,2.2
	c0.6,0.6,1.2,1.2,1.9,1.7c0.1,0.1-0.1,0.3-0.2,0.3c-0.7-0.5-1.5-1-2.2-1.6s-1.3-1.3-1.7-2.2c-0.8-1.7-1.4-3.6-1.1-5.5
	s1.1-3.7,2.4-5.1c1.2-1.4,2.7-2.4,4.5-3c1.7-0.6,3.5-0.7,5.2-0.3s3.1,1.6,4.2,2.8C1339.5,52.9,1339.9,54.6,1340.2,56.2z
	 M1329.3,67.7c0.7,0.1,1.3,0.4,2.1,0.7c0.7,0.3,1.5,0.5,2.3,0.3c0.6-0.2,1.2-0.6,1.8-1.1c0.6-0.4,1.1-0.8,1.7-0.9
	c0.2,0,0.8,1.3,0.6,1.4c-1.5,0.6-2.9,0.9-4.4,1.1c-1.5,0.1-2.9-0.4-4.3-0.7L1329.3,67.7L1329.3,67.7z M1329.8,74.9
	c-3.5-0.4-6.5-2.2-8.9-4.6c-2.4-2.3-4.3-5.3-4.9-8.8c-0.6-3.4,0.3-6.9,1.8-9.9c0.7-1.5,1.6-2.9,2.7-4.1c1.1-1.2,2.3-2.2,3.7-3
	c2.7-1.6,5.8-2,8.8-1.8c1.5,0.1,2.9,0.4,4.2,1c1.3,0.5,2.5,1.3,3.7,2.2s2.3,1.8,3.3,2.9c1,1.1,1.8,2.4,2.3,3.9
	c0.9,3,0.7,6.2-0.1,9.2c0,0.1-0.5-0.1-0.5-0.1c0.6-2.2,1.4-4.6,0.9-6.9c-0.5-2.3-1.9-4.2-3.2-5.9c-1.4-1.7-3.4-2.6-5.2-3.4
	c-2.4-1.1-5.1-1.6-7.8-1.2c-1.3,0.2-2.7,0.4-4,0.8c-1.4,0.4-2.7,1-3.8,2c-1.1,1-2,2.2-2.7,3.5s-1.2,2.7-1.7,4.2
	c-0.4,1.5-0.4,3-0.3,4.5c0.2,1.5,0.6,3,1.1,4.4s1,2.9,1.9,4.2c0.8,1.3,1.9,2.6,3.3,3.4c2.7,1.7,6,2.3,9.2,2c3-0.3,5.8-1.4,8.2-3.3
	c1-0.8,1.8-2,2.4-3.2c0.7-1.2,1.2-2.3,2.1-3.3c0.3-0.3,1.2,0.3,0.9,0.7c-1,1.4-2,2.8-3.1,4.1c-1.1,1.3-2.4,2.5-3.8,3.5
	c-1.5,1-3.2,1.8-4.9,2.3C1333.5,74.9,1331.6,75.1,1329.8,74.9L1329.8,74.9z"/>
<linearGradient id="SVGID_3_" gradientUnits="userSpaceOnUse" x1="2.1637" y1="-255.3868" x2="0.973" y2="-255.1208" gradientTransform="matrix(35.7522 0 0 127.396 1218.1836 32593.9551)">
	<stop  offset="0" style="stop-color:#55FBDC"/>
	<stop  offset="0" style="stop-color:#B32C39;stop-opacity:0.8"/>
	<stop  offset="1" style="stop-color:#B32C39;stop-opacity:0.8"/>
</linearGradient>
<path class="st2" d="M1260.8,43.4c-1.1-7.3-3.1-15.8-6.3-24.3c-0.5-1.4-1-2.7-1.6-4.1c15.5,23.5,27.1,49.6,34.2,76.9
	c0,1,0.1,2.1,0.2,3.5c0.1,1.3,0.4,4.2,0.7,8.2l0.1,1.6l0.1,1.7l0.2,3.6c0.1,2.5,0.3,5.3,0.3,8.2c0.1,7.2-0.2,15.4-0.9,23.8
	C1285.7,108.3,1276.8,74.6,1260.8,43.4L1260.8,43.4z"/>
<linearGradient id="SVGID_4_" gradientUnits="userSpaceOnUse" x1="1.4881" y1="-248.6349" x2="1.4881" y2="-247.6342" gradientTransform="matrix(90.771 0 0 47.866 1135.2267 12052.1582)">
	<stop  offset="0" style="stop-color:#55FBDC"/>
	<stop  offset="0" style="stop-color:#004E7F"/>
	<stop  offset="1" style="stop-color:#B32C39;stop-opacity:0.8"/>
</linearGradient>
<path class="st3" d="M1292.8,176.6c1.9,1.7,4,3.4,6.2,5.4c5.3,4.8,11.1,10.6,16.7,16.9c-26.3-21.8-57.1-38.3-90.8-47.9"/>
<linearGradient id="SVGID_5_" gradientUnits="userSpaceOnUse" x1="1.8191" y1="-257.5528" x2="1.2263" y2="-257.0172" gradientTransform="matrix(269.2585 0 0 247.9467 -128.02 63923.043)">
	<stop  offset="0" style="stop-color:#F5F6F7"/>
	<stop  offset="1" style="stop-color:#F5F6F7;stop-opacity:0"/>
</linearGradient>
<path class="st4" d="M182.8,187.4c38.3,42.4,80.9-0.5,145.6,8.2c42.1-37.9,25.1-142-20.7-116C261.8,105.5,232,3.8,189.8,41.8
	C147.7,79.7,144.5,144.9,182.8,187.4L182.8,187.4z M170.8,198.2c-43.8-48.7-40.1-123.5,8.3-167.1s123.2-39.5,167.1,9.2
	c43.8,48.7,91.3,141.6,43,185.2C340.8,269.1,214.6,246.9,170.8,198.2L170.8,198.2z"/>
</svg>
