<svg id="Layer_1" data-name="Layer 1" xmlns="http://www.w3.org/2000/svg" xmlns:xlink="http://www.w3.org/1999/xlink" viewBox="0 0 72 72"><defs><style>.cls-1{fill:#fff;}.cls-2{fill:url(#linear-gradient);}.cls-3{mask:url(#mask);}.cls-4{fill:url(#linear-gradient-2);}.cls-5{fill:url(#linear-gradient-3);}.cls-6{filter:url(#f);}.cls-7{fill:url(#linear-gradient-4);}.cls-8{filter:url(#i);}.cls-9{fill:url(#linear-gradient-5);}</style><linearGradient id="linear-gradient" x1="-409.17" y1="313.13" x2="-408.13" y2="313.13" gradientTransform="matrix(72, 0, 0, -72, 29465, 22581)" gradientUnits="userSpaceOnUse"><stop offset="0" stop-color="#004e7f"/><stop offset="1" stop-color="#b32c39"/></linearGradient><mask id="mask" x="10.51" y="10.19" width="54.49" height="52.88" maskUnits="userSpaceOnUse"><g transform="translate(-28)"><g id="d"><circle id="a" class="cls-1" cx="59.89" cy="35.12" r="21.37"/></g></g></mask><linearGradient id="linear-gradient-2" x1="-409.91" y1="313.79" x2="-409.44" y2="313.79" gradientTransform="matrix(78.29, 0, 0, -89.07, 32118.9, 27986.53)" gradientUnits="userSpaceOnUse"><stop offset="0" stop-color="#eee"/><stop offset="1" stop-color="#c7e5ff" stop-opacity="0"/></linearGradient><linearGradient id="linear-gradient-3" x1="-423.78" y1="311.64" x2="-424.28" y2="310.64" gradientTransform="translate(-18601 14343) rotate(180) scale(44 46)" xlink:href="#linear-gradient-2"/><filter id="f" x="-50.7" y="-28" width="145.3" height="178.3" name="f"><feOffset result="shadowOffsetOuter1" dy="4" in="SourceAlpha"/><feGaussianBlur result="shadowBlurOuter1" stdDeviation="4" in="shadowOffsetOuter1"/></filter><linearGradient id="linear-gradient-4" x1="-421.22" y1="310.2" x2="-421.22" y2="309.2" gradientTransform="translate(-25948.98 11090.08) rotate(180) scale(61.75 35.74)" gradientUnits="userSpaceOnUse"><stop offset="0" stop-color="#eee"/><stop offset="1" stop-color="#c7e5ff"/></linearGradient><filter id="i" x="-66.1" y="-18.6" width="176.1" height="152.1" name="i"><feOffset result="shadowOffsetOuter1" dy="4" in="SourceAlpha"/><feGaussianBlur result="shadowBlurOuter1" stdDeviation="4" in="shadowOffsetOuter1"/></filter><linearGradient id="linear-gradient-5" x1="-425.78" y1="312.48" x2="-425.78" y2="311.48" gradientTransform="translate(-15613.47 16790.38) rotate(180) scale(36.78 53.72)" xlink:href="#linear-gradient-4"/></defs><title>feature-icon-04</title><circle id="a-2" data-name="a" class="cls-2" cx="36" cy="36" r="36"/><g class="cls-3"><path class="cls-4" d="M46.51,56.5,84.66,10.19,93,40.55q-9.34,14-12.68,16c-3.33,2-16.87,7.87-19.84,6.31Q57.51,61.25,46.51,56.5Z" transform="translate(-28)"/></g><path class="cls-5" d="M67,44.07,70.07,50,74,40.69l-2.14-5.94L57.15,21.81,35.54,7.11,30,4l8,14.47L46.23,38,58.76,43.7Z" transform="translate(-28)"/><g class="cls-6"><path id="g" d="M30.11,4.14l44,35.74,17.8-7Z" transform="translate(-28)"/></g><path id="g-2" data-name="g" class="cls-7" d="M30.11,4.14l44,35.74,17.8-7Z" transform="translate(-28)"/><g class="cls-8"><path id="j" d="M28.73,4.14l36.79,40-22,13.77Z" transform="translate(-28)"/></g><path id="j-2" data-name="j" class="cls-9" d="M30.11,4.14l36.78,40-22,13.77Z" transform="translate(-28)"/></svg>