<?xml version="1.0" encoding="utf-8"?>
<!-- Generator: Adobe Illustrator 22.1.0, SVG Export Plug-In . SVG Version: 6.00 Build 0)  -->
<svg version="1.1" id="Layer_1" xmlns="http://www.w3.org/2000/svg" xmlns:xlink="http://www.w3.org/1999/xlink" x="0px" y="0px"
	 viewBox="0 0 109 72" style="enable-background:new 0 0 109 72;" xml:space="preserve">
<style type="text/css">
	.st0{fill:url(#a-2_1_);}
	.st1{opacity:0.24;}
	.st2{fill:url(#e-2_1_);}
	.st3{fill:url(#SVGID_1_);}
	.st4{fill:url(#i-2_1_);}
</style>
<title>feature-icon-02</title>
<linearGradient id="a-2_1_" gradientUnits="userSpaceOnUse" x1="-828.27" y1="7.25" x2="-827.2278" y2="7.25" gradientTransform="matrix(72 0 0 72 59662 -486)">
	<stop  offset="0" style="stop-color:#004E7F"/>
	<stop  offset="1" style="stop-color:#B32C39"/>
</linearGradient>
<circle id="a-2" class="st0" cx="58" cy="36" r="36"/>
<g>
	<g class="st1">
		<g>
			<path id="e" d="M32,18L0,34l32,16l32-16L32,18z"/>
		</g>
		
			<linearGradient id="e-2_1_" gradientUnits="userSpaceOnUse" x1="-826.375" y1="15.1837" x2="-826.375" y2="16.1837" gradientTransform="matrix(64 0 0 32 52920 -468)">
			<stop  offset="0" style="stop-color:#EEEEEE"/>
			<stop  offset="1" style="stop-color:#C7E5FF"/>
		</linearGradient>
		<path id="e-2" class="st2" d="M32,18L0,34l32,16l32-16L32,18z"/>
	</g>
</g>
<linearGradient id="SVGID_1_" gradientUnits="userSpaceOnUse" x1="-820.7076" y1="21.9938" x2="-820.2076" y2="22.9938" gradientTransform="matrix(44 0 0 22 36168 -446)">
	<stop  offset="0" style="stop-color:#EEEEEE"/>
	<stop  offset="1" style="stop-color:#C7E5FF;stop-opacity:0"/>
</linearGradient>
<path class="st3" d="M70,40L48,51l22,11l22-11L70,40z"/>
<g>
	<path id="i" d="M73,12L37,30l36,18l36-18L73,12z"/>
</g>
<linearGradient id="i-2_1_" gradientUnits="userSpaceOnUse" x1="-827.8333" y1="13.5" x2="-827.8333" y2="14.5" gradientTransform="matrix(72 0 0 36 59677 -474)">
	<stop  offset="0" style="stop-color:#EEEEEE"/>
	<stop  offset="1" style="stop-color:#C7E5FF"/>
</linearGradient>
<path id="i-2" class="st4" d="M73,12L37,30l36,18l36-18L73,12z"/>
</svg>
