<svg id="Layer_1" data-name="Layer 1" xmlns="http://www.w3.org/2000/svg" xmlns:xlink="http://www.w3.org/1999/xlink" viewBox="0 0 83.08 72"><defs><style>.cls-1{fill:url(#linear-gradient);}.cls-2{fill:url(#linear-gradient-2);}.cls-3{opacity:0.48;}.cls-4{fill:url(#linear-gradient-3);}.cls-5{fill:url(#linear-gradient-4);}</style><linearGradient id="linear-gradient" x1="-1313.44" y1="-249.14" x2="-1312.39" y2="-249.14" gradientTransform="translate(94583.06 17974) scale(72)" gradientUnits="userSpaceOnUse"><stop offset="0" stop-color="#004e7f"/><stop offset="1" stop-color="#b32c39"/></linearGradient><linearGradient id="linear-gradient-2" x1="-1291.31" y1="-245.61" x2="-1289.87" y2="-245.61" gradientTransform="translate(41343.09 13260.4) scale(32 53.87)" gradientUnits="userSpaceOnUse"><stop offset="0" stop-color="#eee"/><stop offset="1" stop-color="#c7e5ff" stop-opacity="0"/></linearGradient><linearGradient id="linear-gradient-3" x1="-1220.5" y1="-197.83" x2="-1220.5" y2="-196.83" gradientTransform="translate(14692.06 2422) scale(12)" gradientUnits="userSpaceOnUse"><stop offset="0" stop-color="#eee"/><stop offset="1" stop-color="#c7e5ff"/></linearGradient><linearGradient id="linear-gradient-4" x1="-1303.01" y1="-244.26" x2="-1302.48" y2="-243.57" gradientTransform="translate(60422.39 11707.08) scale(46.36 47.89)" xlink:href="#linear-gradient-3"/></defs><title>feature-icon-03</title><circle class="cls-1" cx="47.06" cy="36" r="36"/><path class="cls-2" d="M76.74,56.38A32,32,0,0,1,60.3,2.51,36,36,0,0,1,76.74,56.38Z"/><g class="cls-3"><rect id="d" x="40.06" y="48" width="12" height="12" rx="1" ry="1"/><rect id="d-2" class="cls-4" x="40.06" y="48" width="12" height="12" rx="1" ry="1"/></g><path class="cls-5" d="M24.47,32.58C19.52,19.69,26.19,5.14,39.37.09l5.37,14a24.73,24.73,0,0,1-.68,19.19A25.91,25.91,0,0,1,29.84,46.59,20.21,20.21,0,0,1,3.59,35.24h0L0,25.91A20.23,20.23,0,0,1,26.26,37.25Z"/></svg>