<?xml version="1.0" encoding="utf-8"?>
<!-- Generator: Adobe Illustrator 22.1.0, SVG Export Plug-In . SVG Version: 6.00 Build 0)  -->
<svg version="1.1" id="Layer_1" xmlns="http://www.w3.org/2000/svg" xmlns:xlink="http://www.w3.org/1999/xlink" x="0px" y="0px"
	 viewBox="0 0 927.9 857.8" style="enable-background:new 0 0 927.9 857.8;" xml:space="preserve">
<style type="text/css">
	.st0{fill:url(#a-3_1_);}
	.st1{fill:url(#SVGID_1_);}
	.st2{fill:url(#SVGID_2_);}
	.st3{fill:url(#SVGID_3_);}
	.st4{fill:url(#SVGID_4_);}
	.st5{fill:url(#SVGID_5_);}
	.st6{fill:url(#SVGID_6_);}
	.st7{fill:url(#SVGID_7_);}
	.st8{opacity:0.8;fill:url(#SVGID_8_);enable-background:new    ;}
	.st9{fill:url(#SVGID_9_);}
	.st10{fill:url(#SVGID_10_);}
	.st11{fill:url(#SVGID_11_);}
	.st12{fill:url(#SVGID_12_);}
	.st13{fill:url(#SVGID_13_);}
	.st14{fill:url(#SVGID_14_);}
</style>
<title>header-bg</title>
<linearGradient id="a-3_1_" gradientUnits="userSpaceOnUse" x1="225.3058" y1="109.6013" x2="224.9158" y2="108.8014" gradientTransform="matrix(610.85 0 0 600.68 -136945.4375 -65167.1133)">
	<stop  offset="0" style="stop-color:#0088FF"/>
	<stop  offset="1" style="stop-color:#004E7F"/>
</linearGradient>
<path id="a-3" class="st0" d="M830.9,584.3c-0.2,0.3-0.4,0.7-0.6,1C830.4,585,830.7,584.7,830.9,584.3L830.9,584.3z M282.3,418
	c-26.7,21.6,5.7,67,16.3,97.5c0.1,0.3,0.2,0.7,0.4,1c0.5,1.5,1.1,3.1,1.6,4.6c2.7,7.6,5.8,15,9.1,22.3
	c8.1,17.7,91.8-158.8,29.7,51.3s90.9-78.3,104.8-65.3s-37,133.9-20.6,144.2c15.7,9.8,32.4,18,49.7,24.7c2,0.8,3.9,1.6,5.9,2.3l5.8,2
	c3.8,1.3,7.5,2.6,11.3,3.6l6.2,1.8c2,0.6,4.1,1.2,6.1,1.7l12.2,2.9c15.8,3.3,31.9,5.3,48,6.1l11.6,0.4c1.8,0.1,3.6,0,5.4,0l5.2-0.1
	c6.8,0,13.3-0.6,20.2-1c1.7-0.1,3.4-0.3,5.1-0.5l5.1-0.6c3.4-0.4,6.8-0.7,10.2-1.4l10.2-1.7c3.4-0.6,6.8-1.5,10.2-2.2l5-1.1
	c1.7-0.4,3.4-0.9,5.1-1.4c3.4-0.9,6.8-1.9,10.1-2.8l9.8-3.3c1.6-0.6,3.2-1,4.8-1.6l4.6-1.8c18.4-7.2,36-16.2,52.7-26.9l4.3-2.8
	c1.4-0.9,2.8-1.8,4-2.7l7.2-5.1l3.3-2.3l2.9-2.3c1.9-1.5-164-100.7-162.4-101.9c13.1-10.3,193.7,75.7,205.8,62.1l4.5-5.2
	c0.8-0.9,1.5-1.7,2.3-2.6l2.2-2.7l3.8-4.8c1.3-1.6,2.6-3.2,3.7-4.8l6.8-9.5c2.2-3.2,4.2-6.4,6.2-9.6c7.5-11.9,14.1-24.3,19.8-37.1
	l2-4.4c0.7-1.5,1.2-3,1.8-4.4l3.4-8.6c0.3-0.7,0.6-1.4,0.8-2.1l0.7-2.1l1.4-4.1c0.9-2.7,1.8-5.4,2.6-8c1.5-5.3,2.9-10.3,4.1-15
	l3-13.4c1.4-8.4,2.8-15.6,3.3-21.6l0.9-7.9c0.2-2.3,0.3-4.2,0.3-5.8c0.1-1.6,0.1-3.2,0-4.9c-0.1-0.1-0.3,1.4-0.7,4.4l-0.6,5.5
	l-1.2,7.6l-0.7,4.5l-0.4,2.5c-0.1,0.8-0.3,1.7-0.5,2.5l-2.2,11.4c-0.9,4.1-2,8.4-3.2,13.1c-0.5,2.3-1.3,4.7-2,7.1l-2.2,7.5l-0.6,1.9
	c-0.2,0.6-0.4,1.3-0.7,1.9l-1.4,3.9c-0.9,2.7-1.9,5.4-2.9,8.2l-3.4,8.4l-1.8,4.3c-0.6,1.5-1.3,2.9-2,4.3l-4.1,8.9
	c-1.5,3-3.1,6-4.7,9l-2.4,4.6l-2.7,4.6l-2.7,4.6c-0.9,1.6-1.8,3.2-2.8,4.7l-2.4,3.6c30.5-47.9,46.6-103.6,46.5-160.3
	c0-165.4-134.1-299.5-299.5-299.5S508.4,235.5,282.3,418z"/>
<g>
	
		<linearGradient id="SVGID_1_" gradientUnits="userSpaceOnUse" x1="224.3898" y1="109.3855" x2="225.3498" y2="108.8855" gradientTransform="matrix(396.12 0 0 427.85 -88539.0547 -46057.4805)">
		<stop  offset="0" style="stop-color:#004E7F;stop-opacity:0.8"/>
		<stop  offset="1" style="stop-color:#00C7FA;stop-opacity:0"/>
	</linearGradient>
	<path class="st1" d="M364.1,620.6c0-0.4,0-0.8,0-1.2C364.1,619.8,364.1,620.2,364.1,620.6z M726.1,515.6
		c59.2,91.2,33.3,213.2-57.9,272.5C577,847.3,455,821.4,395.7,730.2c-20.4-31.3-31.4-67.8-31.7-105.1v2.9c0,1.2,0.1,2.4,0.1,3.6
		l0.2,3.5c0.1,1.2,0.1,2.3,0.2,3.5l0.3,3.4c0.2,2.3,0.4,4.5,0.7,6.6l0.9,6.4c0.2,1,0.3,2.1,0.5,3.1s0.4,2,0.6,3l1.1,5.8l1.3,5.5
		l0.7,2.7l0.3,1.3l0.4,1.3l1.5,4.9c0.5,1.6,0.9,3.2,1.4,4.6c1.1,3,2,5.8,3,8.3l2.9,7.1c0.2,0.5,0.4,1.1,0.7,1.6l0.7,1.5l1.3,2.7
		l2.1,4.6l1.6,3.3c0.5,0.8,0.9,1.7,1.2,2.7c-0.7-0.8-1.2-1.7-1.7-2.7c-0.5-0.9-1.2-2-1.9-3.3l-2.3-4.6c-1.8-3.5-3.7-7.9-5.9-13.1
		l-3.2-8.5c-1-3-2-6.3-3.1-9.8c-0.5-1.7-0.9-3.5-1.4-5.4l-0.7-2.8l-0.4-1.4c-0.1-0.5-0.2-1-0.3-1.4c-0.4-1.9-0.8-3.9-1.2-6
		c-0.2-1-0.4-2-0.6-3.1s-0.3-2.1-0.5-3.2c-1.5-9.1-2.2-18.3-2.3-27.6c0-2.5,0-5,0-7.5l0.3-7.7c0-1.3,0.2-2.7,0.3-4l0.4-4l0.2-2.3
		c0.1-0.8,0.2-1.5,0.3-2.3c0.2-1.5,0.4-3,0.7-4.5c1.8-11.9,132.3-29.2,135.8-39.5c0.4-1.3-126.6,3.5-126.1,2l0.8-2.3l1-2.4
		c0.7-1.7,1.4-3.5,2.2-5.4c0.4-1,0.8-1.9,1.3-2.9l1.4-3.1c5.3-11.9,11.8-23.1,19.4-33.7l1.9-2.6c0.6-0.9,1.3-1.7,2-2.6l4.3-5.3
		c1.5-1.8,3-3.5,4.6-5.2c0.8-0.9,1.5-1.7,2.3-2.6l2.4-2.4c1.6-1.6,3.2-3.3,4.8-4.8l5-4.6c1.6-1.6,3.4-3,5.1-4.4l2.6-2.1
		c0.9-0.7,1.7-1.5,2.6-2.1c3.7-2.7,7-5.4,10.8-7.8l2.8-1.9c1-0.6,1.9-1.3,3-2l6.5-4c9.2-5.3,18.8-9.9,28.7-13.8l7.8-2.8
		c1.3-0.5,2.7-0.9,4-1.3l4-1.2c2.4-0.8,4.9-1.4,7.5-2l3.9-1c1.3-0.3,2.7-0.6,4-0.9c11.9-2.5,24-3.9,36.2-4.2
		c12.7-0.2,27.9,84.7,40.3,86.9c12.3,2.2-6.6-211.6,34.4-73.5s24,10.8,34.8,17.7c4.5,2.8,8.8,5.8,13,9.1c0.9,0.6,1.7,1.3,2.6,2
		l0.6,0.4C699.5,481.1,714.3,497.3,726.1,515.6L726.1,515.6z"/>
</g>
<g>
	
		<linearGradient id="SVGID_2_" gradientUnits="userSpaceOnUse" x1="224.4484" y1="108.8423" x2="225.4678" y2="109.2046" gradientTransform="matrix(396.12 0 0 405.61 -88369.0625 -44022.5234)">
		<stop  offset="0" style="stop-color:#004E7F;stop-opacity:0.5"/>
		<stop  offset="1" style="stop-color:#00C7FA;stop-opacity:0.78"/>
	</linearGradient>
	<path class="st2" d="M534.1,228.6c0-0.4,0-0.8,0-1.2C534.1,227.8,534.1,228.2,534.1,228.6z M896.1,123.6
		c59.2,91.2,33.3,213.2-57.9,272.5s-171.3-180.9-272.5-57.9c-25,30.4-31.4-69-31.8-105.1v2.9c0,1.2,0.1,2.4,0.1,3.6l0.2,3.5
		c0.1,1.2,0.1,2.3,0.2,3.5l0.3,3.4c0.2,2.3,0.4,4.5,0.7,6.7l0.9,6.4c0.2,1,0.3,2.1,0.5,3.1s0.4,2,0.6,3l1.1,5.8l1.3,5.5l0.7,2.7
		l0.3,1.3l0.4,1.3l1.5,4.9c0.5,1.6,0.9,3.2,1.5,4.6c1,3,2,5.8,3,8.3l2.8,7.1c0.2,0.5,0.4,1.1,0.7,1.6l0.7,1.5l1.3,2.7l2.1,4.6
		l1.6,3.3c0.5,0.8,0.9,1.7,1.2,2.7c-0.7-0.8-1.2-1.7-1.7-2.7c-0.5-0.9-1.2-2-1.9-3.3l-2.3-4.6c-1.8-3.5-3.7-7.9-5.9-13.1l-3.2-8.5
		c-1-3-2-6.3-3.1-9.8c-0.5-1.7-0.9-3.5-1.4-5.4l-0.7-2.8l-0.4-1.4c-0.1-0.5-0.2-1-0.3-1.4c-0.4-1.9-0.8-3.9-1.2-6
		c-0.2-1-0.4-2-0.6-3.1l-0.5-3.2c-1.5-9.1-2.2-18.3-2.3-27.6c0-2.5,0-5,0-7.5l0.3-7.7c0-1.3,0.2-2.7,0.3-4l0.4-4l0.2-2.3
		c0.1-0.8,0.2-1.5,0.3-2.3c0.2-1.5,0.4-3,0.7-4.5c1.8-11.9,132.3-29.1,135.8-39.5c0.4-1.3-126.6,3.5-126.1,2l0.8-2.3l1-2.4
		c0.7-1.7,1.4-3.5,2.2-5.4c0.4-1,0.8-1.9,1.3-2.9l1.4-3.1c5.3-11.9,11.8-23.1,19.4-33.7l1.9-2.6c0.6-0.9,1.3-1.7,2-2.6l4.3-5.3
		c1.5-1.7,3-3.5,4.6-5.2c0.8-0.9,1.5-1.7,2.3-2.6l2.4-2.4c1.6-1.6,3.2-3.3,4.8-4.8l5-4.6c1.6-1.6,3.4-3,5.1-4.4l2.6-2.1
		c0.9-0.7,1.7-1.4,2.6-2.1c3.7-2.7,7-5.4,10.8-7.8l2.8-1.9c1-0.6,1.9-1.4,3-2l6.5-4c9.2-5.3,18.8-9.9,28.7-13.8l7.8-2.8
		c1.3-0.5,2.7-0.8,4-1.3l4-1.2c2.4-0.8,4.9-1.4,7.5-2l3.9-1c1.3-0.3,2.7-0.6,4-0.8c11.9-2.5,24-3.9,36.2-4.2
		c12.7-0.2,27.9,84.7,40.3,86.9s-6.6-211.6,34.4-73.5s24,10.8,34.8,17.7c4.5,2.8,8.8,5.8,13,9.1c0.9,0.6,1.7,1.3,2.6,2
		c0.2,0.1,0.4,0.3,0.6,0.4C869.4,89.1,884.3,105.3,896.1,123.6L896.1,123.6z"/>
</g>
<linearGradient id="SVGID_3_" gradientUnits="userSpaceOnUse" x1="1148.9194" y1="679.5397" x2="848.0061" y2="941.1212" gradientTransform="matrix(1 0 0 -1 -715 1076.47)">
	<stop  offset="0" style="stop-color:#004E7F;stop-opacity:0.9"/>
	<stop  offset="0.1241" style="stop-color:#054D7D;stop-opacity:0.9"/>
	<stop  offset="0.2765" style="stop-color:#144A77;stop-opacity:0.9"/>
	<stop  offset="0.4438" style="stop-color:#2D456D;stop-opacity:0.9"/>
	<stop  offset="0.6216" style="stop-color:#503F60;stop-opacity:0.9"/>
	<stop  offset="0.808" style="stop-color:#7D364E;stop-opacity:0.9"/>
	<stop  offset="1" style="stop-color:#B32C39;stop-opacity:0.9"/>
</linearGradient>
<path class="st3" d="M206.4,413.9l6.6,3.6c3.5,1.9,2.8,2.5-0.5,0.8l-3.8-2c-1.2-0.7-2.5-1.3-3.7-2l-7.3-4.3
	c-2.4-1.5-4.7-3.1-7.1-4.6l-1.8-1.2l-1.7-1.3l-3.4-2.5c-9.1-6.7-17.6-14.3-25.3-22.5c-15.7-16.6-28.2-36.5-37.3-57.5
	c-9.1-21.1-14.5-43.6-15.9-66.5c-0.7-11.5-0.5-22.9,0.6-34.4c1.2-11.5,3.5-22.8,6.7-33.8c1.3-4.9,3.2-9.7,4.9-14.4
	c2-4.7,3.9-9.4,6.2-14l1.7-3.4c0.3-0.6,0.5-1.1,0.9-1.7l0.9-1.7l3.7-6.7c1.3-2.2,2.7-4.3,4-6.5l1-1.6c0.3-0.5,0.7-1.1,1-1.6l2.1-3.1
	l2.1-3.2c0.3-0.5,0.7-1,1.1-1.6l1.1-1.5l4.5-6.1c1.6-2,3.2-3.9,4.8-5.9s3.3-3.8,5-5.7c3.3-3.8,7-7.3,10.6-10.9l5.7-5.1l1.4-1.3
	l1.5-1.2l3-2.4c15.9-12.7,33.7-23,52.7-30.4c9.5-3.6,19.3-6.5,29.2-8.6c10-2,20-3.4,30.2-4l7.6-0.4h7.6h1.9c0.6,0,1.3,0.1,1.9,0.1
	l3.8,0.2l3.8,0.2c1.3,0.1,2.5,0.2,3.8,0.3l3.8,0.4c1.3,0.1,2.5,0.2,3.8,0.4l7.5,1.1c1.3,0.2,2.5,0.4,3.7,0.7l3.7,0.7
	c1.2,0.3,2.5,0.5,3.7,0.8l3.7,0.9l3.7,0.9L358,50l1.8,0.6l7.3,2.2c2.4,0.8,4.8,1.7,7.2,2.5c1.2,0.4,2.4,0.8,3.6,1.3l3.5,1.4l3.5,1.5
	l1.8,0.7l1.7,0.8l6.9,3.3c2.3,1.1,4.5,2.4,6.7,3.6c1.1,0.6,2.3,1.2,3.3,1.8l3.3,2l3.2,2l1.6,1c0.5,0.3,1,0.7,1.6,1.1l6.2,4.4
	l0.8,0.5l0.8,0.6l1.5,1.2l3,2.3c1,0.8,2,1.5,3,2.4l2.9,2.5l2.8,2.5l1.4,1.2l1.4,1.3l5.4,5.2c1.8,1.8,3.5,3.7,5.2,5.5l1.3,1.4
	l0.7,0.7l0.6,0.7l2.5,2.9c3.4,3.7,6.5,7.8,9.6,11.7l4.4,6.1c0.4,0.5,0.8,1,1.1,1.6l3.1,4.8l2.1,3.2l1.9,3.3l1.9,3.3l1,1.6l0.9,1.7
	l3.5,6.7l3.2,6.9c4.1,9.4,7.5,19.2,10.3,29.1c2.5,10,4.3,20.1,5.4,30.3l0.7,7.7l0.4,7.7c0,0.6,0.1,1.3,0.1,1.9v5.8
	c0,1.3,0,2.6,0,3.9l-0.2,3.9l-0.2,3.9c0,0.6-0.1,1.3-0.1,1.9l-0.2,1.9l-0.8,7.7l-1.1,7.7l-0.3,1.9l-0.4,1.9l-0.8,3.8
	c-2.1,10.1-5,19.9-8.7,29.5c-0.5,1.2-0.9,2.4-1.4,3.6l-1.5,3.5l-1.5,3.5l-0.8,1.8l-0.8,1.7l-3.4,6.9c-1.2,2.3-2.5,4.5-3.7,6.7
	c-5,8.7-10.6,17.1-17,24.8c-0.8,1-1.5,2-2.3,2.9l-2.5,2.8l-2.5,2.8c-0.4,0.5-0.8,0.9-1.2,1.4l-1.3,1.4l-5.2,5.4l-5.5,5.2
	c-1.7,1.7-3.7,3.3-5.5,4.9l-2.8,2.4l-0.7,0.6l-0.7,0.6l-1.5,1.1c-2,1.5-3.9,3.1-5.8,4.5l-6,4.3c-75.5-36.9-16.7,10.5-25.5,14.7
	c-8.9,4.2-18,7.8-27.4,10.8c-5.3,1.7-10.7,3.1-16.2,4.3c-45,10.4-92.2,4.6-133.3-16.4C119,369.3,80.5,251.1,129.8,154.4
	c8.7-17.2,20-33,33.4-46.9c0.4-0.4,0.8-0.8,1.2-1.3l1.3-1.3l0.5-0.5c0.8-0.8,1.5-1.5,2.3-2.3l2.6-2.5l2.8-2.5l2.8-2.5l1.4-1.3
	c0.5-0.4,1-0.8,1.5-1.2l5.9-4.7l6.1-4.5c8.2-5.8,33.5,57.1,42.5,52.5s1.8-76.2,11.4-79.2l7.3-2.1l2-0.5c13.8-3.6,27.9-5.8,42.1-6.4
	c2.7-0.1,5.4-0.2,8.2-0.2C315,47,325,47.7,335,49.3l1.9,0.3c0.6,0.1,1.3,0.2,1.9,0.3l3.7,0.7c2.5,0.5,4.9,0.9,7.4,1.6
	s4.9,1.2,7.3,1.9l7.2,2.2l1.8,0.6c0.6,0.2,1.2,0.4,1.8,0.6l3.6,1.3L375,60c1.2,0.4,2.3,1,3.5,1.4l1.2,0.5l1.2,0.5
	c1.5,0.6,3.1,1.3,4.6,2l2.5,1.2l2.8,1.3l1.5,0.7l1.7,0.8l1.7,0.9l3.3,1.8l3.3,1.8c1.1,0.6,2.2,1.3,3.2,1.9c2.1,1.3,4.3,2.5,6.4,3.9
	l6.2,4.2l1.6,1l1.5,1.1l3,2.2l3,2.2c1,0.8,1.9,1.6,2.9,2.4l2.9,2.4l1.4,1.2l0.7,0.6l0.7,0.6l5.5,5.1c7.2,7,13.8,14.5,19.8,22.5
	c5.9,8.1,11.3,16.5,16.1,25.3l3.5,6.6c1.1,2.2,2.2,4.5,3.2,6.8s2,4.6,3,6.9l1.4,3.4c0.5,1.2,0.9,2.3,1.3,3.5l1.3,3.5
	c0.4,1.2,0.9,2.3,1.2,3.5l2.2,7.2c0.7,2.4,1.3,4.8,1.9,7.3s1.1,4.9,1.6,7.3l0.7,3.7l0.2,0.9l0.1,0.9l0.3,1.9l0.5,3.2
	c-1-8-2.5-15.9-4.5-23.7c-2.6-9.7-5.9-19.2-9.9-28.4l-3.2-6.8c-0.5-1.2-1.1-2.3-1.7-3.4l-1.7-3.3c-0.6-1.1-1.1-2.2-1.8-3.3l-1.9-3.3
	c-1.3-2.2-2.5-4.4-3.9-6.4c-5.3-8.5-11.3-16.6-17.8-24.2l-2.4-2.8l-1.2-1.4l-1.3-1.4l-5.2-5.4c-1.8-1.8-3.6-3.4-5.5-5.2
	s-3.8-3.3-5.7-5c-3.8-3.3-7.9-6.3-11.9-9.3l-6.3-4.3l-1.6-1.1c-0.5-0.4-1.1-0.7-1.6-1l-3.2-2l-3.2-2c-0.5-0.3-1.1-0.6-1.6-0.9
	l-1.7-0.9c-2.2-1.2-4.4-2.4-6.7-3.6c-4.6-2.2-9-4.4-13.7-6.3c-4.6-2-9.4-3.6-14.1-5.3l-7.2-2.2l-1.8-0.5c-0.6-0.2-1.2-0.3-1.8-0.5
	l-3.7-0.9l-3.7-0.9c-1.2-0.3-2.5-0.5-3.7-0.8l-3.7-0.7l-1.8-0.4l-0.9-0.2l-0.9-0.1l-7.5-1.1c-1.2-0.2-2.5-0.3-3.8-0.4l-3.8-0.4
	c-1.3-0.1-2.5-0.3-3.8-0.3l-3.8-0.2l-3.8-0.2c-0.6,0-1.3-0.1-1.9-0.1h-1.9h-7.6l-7.5,0.4c-10,0.8-20,2.3-29.8,4.5
	c-9.8,2.2-19.4,5.1-28.8,8.7l-7,2.8c-2.3,1-4.6,2.1-6.8,3.1s-4.5,2.2-6.7,3.4l-3.3,1.7c-1.1,0.6-2.2,1.3-3.3,1.9l-3.3,1.9
	c-1.1,0.6-2.2,1.2-3.2,1.9l-6.3,4.1c-0.5,0.3-1.1,0.7-1.6,1.1l-1.5,1.1l-3.1,2.2l-1.5,1.1c-0.5,0.4-1,0.7-1.5,1.1l-3,2.3
	c-4,3-7.8,6.4-11.6,9.7l-5.5,5.2c-0.5,0.4-0.9,0.9-1.3,1.3l-1.3,1.4l-2.5,2.8c-6.8,7.4-12.9,15.4-18.3,23.9c-0.7,1-1.4,2.1-2,3.2
	l-1.9,3.2l-1.9,3.2c-0.6,1.1-1.3,2.1-1.8,3.3l-3.5,6.6c-0.6,1.1-1.1,2.2-1.7,3.4l-1.6,3.4l-1.6,3.4l-1.5,3.4l-1.5,3.5
	c-0.5,1.2-1,2.3-1.4,3.5l-2.6,7.1c-0.5,1.2-0.8,2.4-1.2,3.6l-1.1,3.6c-3,9.6-5.1,19.5-6.4,29.5c-0.4,2.5-0.6,5-0.8,7.5
	c-0.2,2.5-0.5,5-0.5,7.5c0,2.5-0.3,5-0.3,7.5l0,7.5c0.3,10-29.5,138.1-27.8,148S239.5,160,242.7,169.5L120.2,313.4l2.8,7l0.7,1.7
	c0.3,0.6,0.5,1.1,0.8,1.7l3.2,6.8c0.6,1.1,1.2,2.2,1.7,3.3l1.8,3.3c0.6,1.1,1.2,2.2,1.8,3.3l3.8,6.5c2.7,4.2,5.4,8.4,8.5,12.4l2.2,3
	c0.7,1,1.6,2,2.3,2.9l2.4,2.9l1.2,1.5c0.4,0.5,0.8,1,1.2,1.4l5,5.6c0.8,1,1.7,1.8,2.6,2.7l2.6,2.7c0.9,0.9,1.7,1.8,2.6,2.7l2.8,2.5
	l2.8,2.5l1.4,1.3l1.4,1.2l5.8,4.8c2,1.5,4,3,6,4.5s4.1,2.9,6.1,4.3s4.1,2.9,6.3,4.1L206.4,413.9L206.4,413.9z"/>
<linearGradient id="SVGID_4_" gradientUnits="userSpaceOnUse" x1="1207.9987" y1="688.0976" x2="1236.6886" y2="688.0976" gradientTransform="matrix(1 0 0 -1 -715 1076.47)">
	<stop  offset="0" style="stop-color:#D55B55;stop-opacity:0.9"/>
	<stop  offset="1" style="stop-color:#B32C39;stop-opacity:0.9"/>
</linearGradient>
<path class="st4" d="M501.8,382c0.6-0.4,1.3-0.8,2-1.1c0.7-0.3,1.5-0.5,2.3-0.5c0.1,0,0.1,0.3,0,0.4c-0.8,0.1-1.5,0.2-2.2,0.4
	c-0.7,0.2-1.4,0.6-2,1.1c-0.8,0.8-1.4,1.7-1.7,2.8c2-3.3,6.3-4.3,9.6-2.3c3.3,2,4.3,6.3,2.3,9.6c-1.9,3.2-6,4.3-9.3,2.5
	c0.4,0.4,0.9,0.7,1.4,0.9c1.4,0.5,2.8,0.6,4.3,0.3c1.5-0.4,2.9-1.1,4-2.2c0.6-0.6,1.1-1.2,1.4-2c0.3-0.8,0.6-1.5,0.8-2.3
	c0-0.1,0.3-0.1,0.3,0c-0.1,0.8-0.3,1.7-0.5,2.5c-0.2,0.8-0.6,1.6-1.2,2.3c-1.1,1.4-2.6,2.4-4.2,3c-3.4,0.9-7-0.3-9.3-3
	c-2.3-2.5-2.8-6.1-1.2-9.1c0.8-1.4,1.9-2.5,3.2-3.3L501.8,382z M514.9,387.2c-0.1-0.7-0.2-1.4-0.1-2c0-0.7-0.1-1.5-0.5-2.1
	c-0.4-0.5-0.9-0.9-1.5-1.1c-0.6-0.3-1-0.7-1.4-1.2c-0.1-0.2,0.8-1.2,0.9-1c1,1,1.8,2.2,2.4,3.4c0.5,1.3,0.8,2.6,0.9,4
	C515.4,387.2,515.1,387.2,514.9,387.2L514.9,387.2z M521.2,384.5c2.4,7.6-1.7,15.6-9.3,18.1c-1.8,0.6-3.7,0.8-5.6,0.6
	c-1.5-0.1-2.9-0.4-4.3-0.8c-1.4-0.5-2.6-1.2-3.8-2.1c-2.1-1.8-3.7-4.2-4.6-6.8c-0.5-1.3-0.7-2.6-0.7-4c0-1.3,0.2-2.6,0.5-3.9
	c0.3-1.3,0.7-2.6,1.3-3.9c0.6-1.3,1.4-2.4,2.4-3.4c2.2-1.8,4.8-2.9,7.6-3.3c0.1,0,0.1,0.4,0,0.4c-2,0.2-4.3,0.4-6,1.7
	c-1.6,1.3-2.9,3-3.7,4.9c-0.8,1.8-1.1,3.7-1,5.7c-0.1,2.5,0.5,5,1.7,7.1c0.6,1.1,1.3,2.2,2,3.2c0.8,1.1,1.8,1.9,3,2.6
	c1.2,0.6,2.5,0.9,3.9,1.1c1.3,0.1,2.7,0.1,4-0.1c1.4-0.2,2.7-0.7,3.8-1.4c1.2-0.7,2.3-1.6,3.3-2.5c1.1-0.9,2-2,2.8-3.1
	c0.8-1.2,1.4-2.6,1.6-4c0.4-3-0.2-6-1.6-8.6c-1.3-2.5-3.2-4.5-5.6-5.8c-1.1-0.5-2.3-0.8-3.5-0.9c-1.2-0.1-2.3-0.2-3.4-0.6
	c-0.4-0.1-0.2-1.1,0.3-1c1.5,0.3,3,0.7,4.5,1.1c1.5,0.4,2.9,1.1,4.2,2c1.4,0.9,2.6,2.1,3.6,3.4c1.1,1.3,1.8,2.8,2.3,4.5L521.2,384.5
	z"/>
<linearGradient id="SVGID_5_" gradientUnits="userSpaceOnUse" x1="1283" y1="457.0167" x2="1302" y2="457.0167" gradientTransform="matrix(1 0 0 -1 -715 1076.47)">
	<stop  offset="0" style="stop-color:#D55B55;stop-opacity:0.9"/>
	<stop  offset="1" style="stop-color:#B32C39;stop-opacity:0.9"/>
</linearGradient>
<path class="st5" d="M573.7,615.5c0.4-0.3,0.8-0.5,1.3-0.7c0.5-0.2,1-0.3,1.4-0.3c0.1,0,0.1,0.2,0,0.2c-0.5,0-1,0.1-1.4,0.3
	c-0.5,0.1-0.9,0.4-1.2,0.7c-0.5,0.5-0.9,1.1-1.1,1.8c1.3-2.1,4-2.8,6.1-1.5c2.1,1.3,2.8,4,1.5,6.1c-1.2,2-3.8,2.7-5.9,1.6
	c0.3,0.2,0.6,0.4,0.9,0.6c0.9,0.3,1.8,0.4,2.7,0.2c0.9-0.2,1.8-0.7,2.5-1.4c0.4-0.3,0.7-0.8,0.9-1.2c0.2-0.5,0.4-1,0.5-1.5
	c0-0.1,0.2,0,0.2,0c-0.1,0.5-0.2,1.1-0.3,1.6c-0.2,0.5-0.4,1-0.8,1.5c-0.7,0.9-1.6,1.6-2.7,1.9c-1.1,0.3-2.2,0.2-3.3-0.1
	c-1-0.3-1.9-1-2.6-1.8c-0.7-0.8-1.2-1.8-1.3-2.8c-0.1-1,0.1-2.1,0.6-3C572.1,616.7,572.8,615.9,573.7,615.5L573.7,615.5z
	 M582.5,618.5c-0.1-0.4-0.1-0.9-0.1-1.4c0-0.5-0.1-1-0.4-1.4c-0.3-0.3-0.7-0.6-1.1-0.8c-0.4-0.2-0.7-0.4-1-0.8
	c-0.1-0.1,0.5-0.8,0.7-0.7c0.7,0.7,1.2,1.4,1.7,2.3c0.3,0.8,0.6,1.7,0.6,2.6L582.5,618.5L582.5,618.5z M586.7,616.9
	c0.5,2.1,0.4,4.3-0.4,6.2c-0.7,2-1.9,3.7-3.7,5c-1.7,1.1-3.8,1.6-5.8,1.4c-1,0-1.9-0.2-2.8-0.6c-0.9-0.3-1.7-0.8-2.5-1.4
	c-1.4-1.2-2.5-2.8-3-4.6c-0.3-0.9-0.4-1.8-0.4-2.7c0-0.9,0.1-1.8,0.3-2.6c0.2-0.9,0.5-1.8,0.8-2.6c0.4-0.9,0.9-1.6,1.6-2.3
	c1.4-1.2,3.2-2,5.1-2.2c0.1,0,0.1,0.3,0,0.3c-1.4,0-2.8,0.4-4,1.1c-1.1,0.9-1.9,2-2.5,3.3c-0.5,1.2-0.7,2.5-0.7,3.8
	c-0.1,1.7,0.3,3.3,1.2,4.8c0.4,0.7,0.9,1.5,1.4,2.1c0.5,0.7,1.2,1.3,2,1.7c0.8,0.4,1.7,0.6,2.6,0.7c0.9,0.1,1.8,0.1,2.7-0.1
	c0.9-0.2,1.8-0.5,2.5-1c0.8-0.5,1.5-1,2.2-1.7c0.7-0.6,1.3-1.3,1.8-2.1c0.6-0.8,0.9-1.7,1.1-2.7c0.3-2-0.1-4-1-5.8
	c-0.8-1.6-2.1-3-3.7-3.9c-0.7-0.4-1.5-0.6-2.3-0.6c-0.8,0-1.5-0.2-2.3-0.4c-0.2-0.1-0.1-0.8,0.2-0.7c1,0.2,2,0.5,3,0.8
	c1,0.3,1.9,0.8,2.8,1.4c0.9,0.6,1.7,1.4,2.4,2.3C585.9,614.7,586.4,615.7,586.7,616.9L586.7,616.9z"/>
<linearGradient id="SVGID_6_" gradientUnits="userSpaceOnUse" x1="902.4549" y1="593.1339" x2="929.7149" y2="593.1339" gradientTransform="matrix(1 0 0 -1 -715 1076.47)">
	<stop  offset="0" style="stop-color:#D55B55"/>
	<stop  offset="1" style="stop-color:#B32C39"/>
</linearGradient>
<path class="st6" d="M208.6,481.2c0.1,0.7,0.2,1.4,0.2,2.1c0,0.7-0.1,1.4-0.4,2.1c0,0.1-0.3,0-0.3-0.1c0.2-0.7,0.4-1.3,0.4-2
	c0.1-0.7,0-1.4-0.2-2c-0.4-1-1-1.8-1.8-2.5c2.1,2.9,1.4,6.9-1.5,9c-1.8,1.3-4.2,1.6-6.3,0.7l0,0c-3.3-1.4-4.8-5.2-3.4-8.5
	c0.4-1,1.1-1.9,1.9-2.5c-0.5,0.2-0.9,0.5-1.3,0.9c-0.9,1-1.5,2.2-1.8,3.5c-0.2,1.4-0.1,2.8,0.4,4.2c0.2,0.7,0.6,1.3,1.2,1.9
	c0.5,0.5,1.1,1,1.7,1.5c0.1,0.1,0,0.3-0.1,0.2c-0.7-0.4-1.3-0.9-1.9-1.4c-0.6-0.5-1.1-1.1-1.5-1.9c-0.8-1.4-1.1-3-1-4.7
	c0.5-3.2,2.7-5.9,5.8-6.8c1.5-0.5,3-0.5,4.5-0.2c1.4,0.5,2.7,1.3,3.7,2.5C207.9,478.4,208.4,479.8,208.6,481.2L208.6,481.2z
	 M199.3,490.8c0.6,0.1,1.2,0.3,1.8,0.6c0.6,0.3,1.3,0.4,2,0.3c0.6-0.2,1.1-0.5,1.5-0.9c0.4-0.4,0.9-0.7,1.5-0.8
	c0.2,0,0.7,1.1,0.5,1.2c-1.2,0.5-2.5,0.7-3.8,0.8c-1.3,0-2.5-0.3-3.7-0.6C199.1,491.3,199.2,491,199.3,490.8L199.3,490.8z
	 M199.8,496.9c-6-1.1-10.7-5.6-12.2-11.5c-0.4-2.9,0.1-5.8,1.4-8.4c0.6-1.2,1.4-2.4,2.3-3.4c0.9-1,2-1.9,3.2-2.5
	c2.3-1.2,5-1.7,7.6-1.4c1.3,0.1,2.5,0.4,3.7,0.9c1.1,0.5,2.2,1.1,3.2,1.9c1.1,0.7,2,1.6,2.9,2.5c0.9,1,1.6,2.1,2,3.4
	c0.8,2.5,0.8,5.3,0,7.8c0,0.1-0.4,0-0.4-0.1c0.5-1.8,1.2-3.9,0.7-5.8c-2.1-5.9-8-9.6-14.2-9.1c-1.2,0.1-2.4,0.3-3.5,0.6
	c-1.2,0.3-2.4,0.9-3.3,1.7c-0.9,0.9-1.7,1.9-2.3,3c-0.6,1.1-1.1,2.3-1.4,3.5c-0.3,1.3-0.4,2.6-0.2,3.8c0.2,1.3,0.5,2.5,1,3.7
	c0.4,1.3,1,2.5,1.7,3.6c0.7,1.2,1.7,2.2,2.9,2.9c2.4,1.4,5.2,2,8,1.8c2.6-0.2,5.1-1.1,7.1-2.8c0.9-0.8,1.6-1.7,2.1-2.7
	c0.5-1,1.1-1.9,1.8-2.8c0.2-0.3,1,0.3,0.8,0.6c-0.8,1.2-1.7,2.4-2.6,3.5c-0.9,1.1-2,2.1-3.3,2.9c-1.3,0.8-2.7,1.5-4.2,1.9
	C203,497,201.3,497.1,199.8,496.9L199.8,496.9z"/>
<linearGradient id="SVGID_7_" gradientUnits="userSpaceOnUse" x1="1357.9084" y1="309.0692" x2="1377.4485" y2="309.0692" gradientTransform="matrix(1 0 0 -1 -715 1076.47)">
	<stop  offset="0" style="stop-color:#D55B55;stop-opacity:0.9"/>
	<stop  offset="1" style="stop-color:#B32C39;stop-opacity:0.9"/>
</linearGradient>
<path class="st7" d="M658.1,765.7c0.1,0.5,0.1,1,0.1,1.6c0,0.5-0.1,1.1-0.3,1.6c0,0.1-0.2,0-0.2-0.1c0.2-0.5,0.3-1,0.3-1.5
	c0.2-1.3-0.3-2.5-1.4-3.3c0.9,1.4,1.1,3.1,0.4,4.6c-1,2.3-3.7,3.4-6.1,2.5c-2.3-1-3.4-3.7-2.4-6.1l0,0c0.3-0.7,0.8-1.4,1.4-1.9
	c-0.3,0.2-0.7,0.4-0.9,0.7c-0.7,0.7-1.1,1.6-1.3,2.6c-0.2,1-0.1,2.1,0.3,3.1c0.2,0.5,0.4,1,0.8,1.4c0.4,0.4,0.8,0.7,1.2,1.1
	c0.1,0,0,0.2-0.1,0.2c-0.5-0.3-0.9-0.6-1.4-1c-0.4-0.4-0.8-0.8-1.1-1.3c-0.6-1.1-0.8-2.3-0.7-3.4c0.2-1.2,0.7-2.3,1.5-3.2
	c0.8-0.9,1.7-1.5,2.8-1.9c1-0.4,2.2-0.4,3.2-0.2c1,0.3,1.9,0.9,2.6,1.8C657.6,763.7,658,764.7,658.1,765.7L658.1,765.7z
	 M651.3,772.9c0.4,0.1,0.9,0.2,1.3,0.5c0.4,0.2,0.9,0.3,1.4,0.2c0.4-0.1,0.8-0.4,1.1-0.7c0.3-0.3,0.7-0.5,1.1-0.6
	c0.1,0,0.5,0.8,0.4,0.9c-0.9,0.4-1.8,0.6-2.8,0.7c-0.9,0-1.8-0.2-2.7-0.5C651.2,773.2,651.3,773.1,651.3,772.9z M651.6,777.4
	c-2.1-0.3-4.1-1.3-5.6-2.8c-1.6-1.5-2.6-3.4-3.1-5.5c-0.3-2.1,0.1-4.3,1.1-6.2c0.4-0.9,1-1.8,1.7-2.5c0.7-0.7,1.5-1.4,2.3-1.9
	c1.7-0.9,3.6-1.3,5.5-1.1c0.9,0,1.8,0.3,2.6,0.6c0.8,0.3,1.6,0.8,2.3,1.3c0.7,0.5,1.4,1.2,2,1.8c0.6,0.7,1.1,1.5,1.4,2.5
	c0.5,1.9,0.5,3.9-0.1,5.8c0,0.1-0.3,0-0.3-0.1c0.5-1.4,0.7-2.8,0.6-4.3c-0.4-1.4-1.1-2.6-2-3.7c-0.9-1-2-1.7-3.3-2.1
	c-1.5-0.7-3.2-1-4.9-0.8c-0.9,0.1-1.7,0.3-2.5,0.5c-0.9,0.2-1.7,0.7-2.4,1.3c-0.7,0.6-1.3,1.4-1.7,2.2c-0.4,0.8-0.8,1.7-1,2.6
	c-0.2,0.9-0.3,1.9-0.2,2.8c0.1,0.9,0.3,1.9,0.7,2.8c0.3,0.9,0.7,1.8,1.2,2.6c0.5,0.8,1.2,1.6,2.1,2.1c3.5,2,7.8,1.7,10.9-0.8
	c0.6-0.6,1.1-1.2,1.5-2c0.4-0.7,0.8-1.4,1.3-2c0.2-0.2,0.7,0.2,0.6,0.4c-0.6,0.9-1.2,1.8-1.9,2.6c-0.7,0.8-1.5,1.6-2.4,2.2
	c-0.9,0.6-2,1.1-3.1,1.4C653.9,777.5,652.8,777.6,651.6,777.4L651.6,777.4z"/>
<linearGradient id="SVGID_8_" gradientUnits="userSpaceOnUse" x1="1284.9899" y1="687.9689" x2="1299.9978" y2="687.9689" gradientTransform="matrix(1 0 0 -1 -715 1076.47)">
	<stop  offset="0" style="stop-color:#D55B55;stop-opacity:0.9"/>
	<stop  offset="1" style="stop-color:#B32C39;stop-opacity:0.9"/>
</linearGradient>
<path class="st8" d="M574.2,385.3c0.3-0.2,0.7-0.4,1-0.6c0.4-0.2,0.8-0.2,1.2-0.3c0.1,0,0.1,0.2,0,0.2c-0.4,0-0.8,0.1-1.2,0.2
	C574.8,385,574.5,385.2,574.2,385.3c-0.4,0.5-0.7,1-0.9,1.6c1-1.7,3.3-2.3,5-1.2c1.1,0.7,1.7,1.8,1.7,3.1l0,0c0,2-1.6,3.6-3.7,3.6
	c-0.6,0-1.2-0.2-1.7-0.4c0.2,0.2,0.5,0.4,0.7,0.5c0.7,0.2,1.5,0.3,2.2,0.2c0.8-0.2,1.5-0.6,2.1-1.1c0.3-0.3,0.6-0.6,0.7-1
	c0.2-0.4,0.3-0.8,0.4-1.2c0,0,0.2,0,0.1,0c-0.1,0.4-0.2,0.9-0.3,1.3c-0.1,0.4-0.3,0.8-0.6,1.2c-0.6,0.7-1.3,1.3-2.2,1.6
	c-0.9,0.2-1.8,0.2-2.7-0.1c-0.8-0.3-1.6-0.8-2.1-1.5c-0.6-0.6-0.9-1.4-1.1-2.3C571.8,387.8,572.6,386.1,574.2,385.3L574.2,385.3z
	 M580.7,387.5c-0.1-0.4-0.1-0.7-0.1-1.1c0-0.4-0.1-0.8-0.3-1.1c-0.2-0.3-0.4-0.5-0.7-0.6c-0.3-0.1-0.5-0.4-0.7-0.6
	c0-0.1,0.4-0.6,0.4-0.6c0.5,0.6,0.8,1.2,1.1,1.8c0.2,0.7,0.4,1.4,0.4,2.1C580.9,387.4,580.8,387.5,580.7,387.5z M584.8,386.4
	c0.4,1.7,0.3,3.4-0.3,5c-0.5,1.6-1.5,3-2.9,4c-2.1,1.2-4.6,1.5-6.8,0.7c-0.7-0.3-1.4-0.6-2-1.1c-1.1-1-2-2.2-2.4-3.7
	c-0.2-0.7-0.3-1.4-0.3-2.1c0-0.7,0.1-1.4,0.3-2.1c0.2-0.7,0.4-1.4,0.7-2.1c0.3-0.7,0.7-1.3,1.3-1.8c1.1-1,2.5-1.6,4-1.8
	c0,0,0.1,0.2,0,0.2c-1.1,0-2.2,0.3-3.2,0.9c-0.8,0.7-1.5,1.6-1.9,2.6c-0.4,1-0.6,2-0.5,3.1c-0.1,1.3,0.3,2.7,0.9,3.8
	c0.3,0.6,0.7,1.2,1.1,1.7c0.4,0.6,1,1,1.6,1.4c0.6,0.3,1.3,0.5,2,0.6c0.7,0.1,1.4,0,2.1-0.1c0.7-0.1,1.4-0.4,2-0.8
	c0.6-0.4,1.2-0.8,1.7-1.4c0.6-0.5,1.1-1.1,1.5-1.7c0.4-0.7,0.7-1.4,0.8-2.2c0.2-1.6-0.1-3.2-0.8-4.6c-0.7-1.3-1.7-2.4-3-3.1
	c-0.6-0.3-1.2-0.5-1.8-0.5c-0.6,0-1.2-0.1-1.8-0.3c-0.2-0.1-0.1-0.6,0.1-0.5c0.8,0.2,1.6,0.4,2.3,0.6c0.8,0.2,1.5,0.6,2.2,1.1
	c0.7,0.5,1.3,1.1,1.9,1.8C584,384.7,584.4,385.5,584.8,386.4L584.8,386.4z"/>
<linearGradient id="SVGID_9_" gradientUnits="userSpaceOnUse" x1="227.0659" y1="101.2689" x2="227.3335" y2="101.8011" gradientTransform="matrix(76.1664 -101.2215 18.5648 13.9739 -18957.5195 22212.2715)">
	<stop  offset="0" style="stop-color:#004E7F"/>
	<stop  offset="1" style="stop-color:#B32C39"/>
</linearGradient>
<path class="st9" d="M242.2,602.9l1.1-1.8l0.2-0.3c1-1.1,2.6-2.7,4.5-4.9l2.2-2.4c0.8-0.9,1.6-1.8,2.5-2.7l6-6l1.7-1.6
	c0.6-0.5,1.2-1.1,1.8-1.6l3.7-3.3c1.3-1.1,2.6-2.3,3.9-3.5l3.5-3c-22.2,25.6-38.9,55.4-49.2,87.6c-4,5.9-7.6,12-10.9,18.3
	c-1,1.8-1.9,3.6-2.6,5.3c4.5-21.2,11.6-41.8,21.2-61.2"/>
<linearGradient id="SVGID_10_" gradientUnits="userSpaceOnUse" x1="227.5637" y1="108.9227" x2="227.5637" y2="107.9627" gradientTransform="matrix(-21.01 -108.1 174.51 -33.92 -13998.9785 28880.748)">
	<stop  offset="0" style="stop-color:#004E7F"/>
	<stop  offset="1" style="stop-color:#B32C39"/>
</linearGradient>
<path class="st10" d="M220.6,531.8c-33.9,11.9-65,30.7-91.4,55.2c-26.3,24.4-47.5,54-62.1,86.8"/>
<linearGradient id="SVGID_11_" gradientUnits="userSpaceOnUse" x1="227.9972" y1="105.1415" x2="227.9972" y2="106.1418" gradientTransform="matrix(-17.32 -89.1 46.99 -9.13 -958.0198 21899.8008)">
	<stop  offset="0" style="stop-color:#004E7F"/>
	<stop  offset="1" style="stop-color:#B32C39"/>
</linearGradient>
<path class="st11" d="M56.2,598.1c1.3-2.2,2.5-4.6,4.1-7.1c3.7-6.2,8.3-12.9,13.4-19.7C57.1,601.6,47,635.1,44,669.5"/>
<linearGradient id="SVGID_12_" gradientUnits="userSpaceOnUse" x1="227.4641" y1="106.1106" x2="227.373" y2="107.0031" gradientTransform="matrix(-22.3 -114.75 60.32 -11.72 -755.3798 28139.75)">
	<stop  offset="0" style="stop-color:#004E7F"/>
	<stop  offset="1" style="stop-color:#2C466E;stop-opacity:0.7"/>
</linearGradient>
<path class="st12" d="M587.2,829.6c-3.3,7.7-5.8,15.7-7.5,23.9c-0.3,1.4-0.6,2.9-0.8,4.3c-0.6-28.2,3.3-56.4,11.8-83.3
	c0.5-0.8,1-1.8,1.7-3s1.9-3.8,3.7-7.4l0.7-1.4l0.8-1.5l1.8-3.2c1.3-2.2,2.6-4.6,4.1-7.1c4.1-6.8,8.6-13.3,13.4-19.7
	C600.3,761.7,590.2,795.2,587.2,829.6"/>
<linearGradient id="SVGID_13_" gradientUnits="userSpaceOnUse" x1="224.5979" y1="108.3296" x2="224.7679" y2="109.2996" gradientTransform="matrix(272.82 0 0 275.98 -61160.4375 -29729.4512)">
	<stop  offset="0" style="stop-color:#D55B55"/>
	<stop  offset="1" style="stop-color:#B32C39"/>
</linearGradient>
<path class="st13" d="M198.4,178.2c-6-2.9-12.3-5.3-18.6-7.3c-1.6-0.5-3.2-0.9-4.8-1.4c-0.8-0.2-1.6-0.5-2.4-0.7l-2.4-0.6l-2.4-0.6
	c-0.8-0.2-1.6-0.4-2.4-0.5l-4.8-0.9l-1.2-0.2l-1.3-0.2l-2.5-0.3c-1.7-0.2-3.3-0.5-5-0.5l-5-0.4l-5-0.1c-0.8,0-1.7-0.1-2.5-0.1h-2.5
	l-2.5,0.1c-0.8,0-1.7,0-2.5,0.1l-5,0.4l-1.3,0.1l-1.3,0.2l-2.5,0.3l-2.5,0.3c-0.8,0.1-1.7,0.3-2.5,0.4l-5,0.9
	c-3.3,0.8-6.6,1.4-9.8,2.4s-6.4,2-9.6,3c-1.6,0.6-3.1,1.2-4.7,1.8c-1.6,0.6-3.1,1.3-4.7,2c-3.1,1.3-6.1,2.9-9.1,4.4
	c-2.9,1.7-5.9,3.3-8.7,5.1s-5.6,3.8-8.3,5.7c-2.8,1.9-5.3,4.1-7.8,6.4c-1.3,1.1-2.6,2.2-3.8,3.4c-1.2,1.2-2.5,2.3-3.6,3.5l-3.5,3.7
	l-0.9,0.9l-0.8,1l-1.7,1.9l-1.7,1.9c-0.5,0.6-1,1.3-1.6,2c-1,1.3-2.1,2.6-3.1,4l-2.9,4.1c-0.5,0.7-1,1.4-1.4,2.1l-1.4,2.1l-1.3,2
	c-0.4,0.7-0.8,1.4-1.3,2.1c-0.8,1.4-1.7,2.9-2.5,4.3l-2.3,4.4c-0.2,0.4-0.4,0.7-0.6,1.1l-0.6,1.1l-1,2.3l-1,2.3
	c-0.3,0.8-0.6,1.5-0.9,2.3c-0.6,1.6-1.2,3.1-1.8,4.6l-1.6,4.7L6.3,261c-0.1,0.4-0.2,0.8-0.3,1.2l-0.7,2.4c-1,3.2-1.6,6.4-2.4,9.6
	L2,279.1c-0.1,0.8-0.3,1.6-0.4,2.4L1.3,284l-0.3,2.4c-0.1,0.8-0.2,1.6-0.3,2.5l-0.4,5l-0.1,1.2v1.2l-0.1,2.5c0,1.6-0.1,3.3,0,5
	l0.1,5c0.1,1.6,0.2,3.3,0.3,4.9l0.2,2.5l0.3,2.4c0.2,1.6,0.4,3.3,0.6,4.9c0.6,3.3,1,6.5,1.8,9.7c0.6,3.2,1.6,6.4,2.4,9.6
	c0.5,1.6,1,3.1,1.5,4.7c0.3,0.8,0.5,1.6,0.8,2.4l0.9,2.3l0.9,2.3c0.3,0.8,0.6,1.5,0.9,2.3l2,4.5c0.3,0.8,0.7,1.5,1.1,2.2l1.1,2.2
	l1.1,2.2c0.4,0.7,0.8,1.5,1.2,2.2c0.8,1.4,1.6,2.9,2.5,4.3l2.7,4.2c3.9,5.9,8.3,11.5,13,16.7c4.8,5.2,10,10,15.5,14.5l4.2,3.3
	l4.3,3.1l1.1,0.8l1.1,0.7l2.3,1.4l2.3,1.4l2.3,1.3l2.3,1.3l1.2,0.7l1.2,0.6L78,427c3.2,1.4,6.4,3,9.8,4.2c6.6,2.6,13.4,4.7,20.3,6.1
	c0.9,0.2,1.7,0.4,2.6,0.6l2.6,0.5l2.6,0.5l1.3,0.2l1.3,0.2l5.3,0.7c1.8,0.2,3.5,0.3,5.3,0.4c0.9,0.1,1.8,0.2,2.7,0.2l2.7,0.1
	l2.7,0.1c0.4,0,0.9,0,1.3,0h1.3l5.3-0.1c1.8-0.1,3.5-0.3,5.3-0.4c0.9-0.1,1.8-0.1,2.6-0.2l2.6-0.3l2.6-0.3c0.4-0.1,0.9-0.1,1.3-0.2
	l1.3-0.2l5.2-0.9l5.2-1.1c0.6-0.1,1.2-0.3,1.8-0.4s1-0.3,1.4-0.4c0.5-0.2,1.1-0.4,1.6-0.6c0.5-0.3-0.4-0.2-3.1,0.6l-4.9,1.1
	c-0.8,0.2-1.6,0.4-2.5,0.5l-2.5,0.4l-2.5,0.4l-1.3,0.2l-1.3,0.2l-5,0.6c-0.8,0.1-1.7,0.1-2.5,0.2l-2.6,0l-2.5,0.2l-2.5,0.1
	c-1.7,0-3.4,0.1-5.1,0.1l-5.1-0.1c-6.8-0.3-13.5-1-20.2-2.3c-6.6-1.2-13.2-3-19.6-5.2c-12.7-4.4-24.7-10.7-35.6-18.7
	c-21.5-15.7-38-37.3-47.6-62.1c-0.3-0.8-0.6-1.5-0.9-2.3l-0.8-2.3l-0.8-2.2c-0.3-0.8-0.5-1.5-0.7-2.3l-1.3-4.7
	c-0.2-0.8-0.4-1.6-0.6-2.4l-0.5-2.4l-0.5-2.4c-0.2-0.8-0.3-1.6-0.5-2.4l-0.8-4.8l-0.6-4.9c-0.1-0.8-0.2-1.6-0.3-2.4l-0.2-2.4
	c-0.5-6.5-0.5-13-0.1-19.4l0.4-4.8c0-0.8,0.2-1.6,0.3-2.4l0.3-2.4l0.3-2.4c0.1-0.8,0.3-1.6,0.4-2.4l0.9-4.8l1.1-4.7
	c0.2-0.8,0.4-1.6,0.6-2.4l0.7-2.3l0.7-2.3c0.2-0.8,0.5-1.5,0.7-2.3l1.6-4.6c0.3-0.8,0.6-1.5,0.9-2.3l0.9-2.3l0.9-2.3
	c0.3-0.7,0.7-1.5,1-2.2c0.7-1.5,1.3-2.9,2-4.4l2.3-4.3c0.7-1.5,1.6-2.9,2.4-4.3l1.3-2.2c0.4-0.7,0.9-1.4,1.3-2.1
	c0.9-1.4,1.8-2.8,2.7-4.2l2.9-4.1l0.7-1l0.8-1l1.5-2l1.5-2c0.5-0.6,1.1-1.3,1.6-1.9c1.1-1.3,2.2-2.5,3.3-3.8l3.5-3.6
	c9.4-9.5,20.1-17.6,31.8-24c5.9-3.1,11.9-5.9,18.2-8.2c6.3-2.2,12.7-4.1,19.2-5.4c1.6-0.4,3.3-0.6,4.9-0.9l2.5-0.4l2.5-0.3
	c1.7-0.2,3.3-0.4,5-0.6l5-0.4c6.7-0.4,13.3-0.3,20,0.3c6.9,0.6,13.8,1.7,20.5,3.4c0.8,0.2,1.7,0.4,2.5,0.6l2.5,0.7
	c1.7,0.5,3.3,0.9,5,1.5l4.9,1.7l4.8,2c6.4,2.7,12.6,5.9,18.6,9.5c5.9,3.7,11.6,7.8,16.9,12.2l4,3.4c1.3,1.2,2.5,2.4,3.8,3.6
	s2.5,2.5,3.7,3.7l1.8,1.9c0.6,0.6,1.2,1.3,1.7,2l1.7,2c0.6,0.7,1.2,1.3,1.7,2l3.3,4.1c2,2.8,4.1,5.6,6,8.6c3.7,5.8,7,11.8,9.7,18
	c0.8,1.6,1.4,3.2,2,4.8c0.6,1.6,1.3,3.2,1.8,4.8c0.5,1.6,1.1,3.3,1.7,4.9l1.4,5c0.4,1.2,0.6,2.4,0.9,3.3s0.5,1.9,0.7,2.6
	s0.4,1.3,0.6,1.7c0.1,0.3,0.2,0.6,0.4,0.8c0.2,0.3,0.3-0.2,0.2-1.2s-0.5-2.9-1-5.4c-3-12.8-8-25.1-14.7-36.5
	c-0.8-1.5-1.7-2.9-2.6-4.3s-1.8-2.9-2.8-4.2s-2-2.8-2.9-4.1l-3.1-4l-0.8-1l-0.8-1l-1.6-1.9l-1.7-1.9c-0.6-0.6-1.2-1.2-1.7-1.9
	c-1.2-1.2-2.3-2.5-3.5-3.6l-3.7-3.5c-5-4.6-10.3-8.8-15.8-12.6C210.3,184.5,204.4,181.2,198.4,178.2"/>
<linearGradient id="SVGID_14_" gradientUnits="userSpaceOnUse" x1="223.6105" y1="107.4489" x2="223.7705" y2="108.419" gradientTransform="matrix(124.3 0 0 121.03 -27716.5 -12598.4473)">
	<stop  offset="0" style="stop-color:#D55B55"/>
	<stop  offset="1" style="stop-color:#B32C39"/>
</linearGradient>
<path class="st14" d="M150.2,462.2l-0.3-4.8c-0.2-1.6-0.5-3.1-0.8-4.6c-0.2-0.8-0.3-1.5-0.5-2.3l-0.6-2.3l-0.7-2.3l-0.3-1.1
	l-0.4-1.1l-1.7-4.3c-1.3-2.8-2.8-5.6-4.4-8.3c-3.2-5.4-7.1-10.4-11.6-14.8c-0.6-0.6-1.1-1.1-1.7-1.6l-1.8-1.5c-1.2-1-2.5-2-3.8-2.9
	c-1.3-0.9-2.7-1.7-4.1-2.5s-2.9-1.4-4.3-2c-0.8-0.3-0.7-0.1,0.1,0.2c1.3,0.6,2.5,1.3,3.8,1.9s2.4,1.5,3.5,2.3l1.7,1.2
	c0.6,0.4,1.1,0.9,1.6,1.3l3.2,2.7c1,1,1.9,2,2.9,3c0.5,0.5,1,1,1.4,1.5l1.3,1.6c0.8,1.1,1.8,2.1,2.6,3.2l2.4,3.4
	c3.1,4.5,5.6,9.3,7.5,14.4c1,2.6,1.7,5.2,2.3,7.8c0.3,1.3,0.5,2.7,0.7,4c0.2,1.3,0.4,2.7,0.5,4.1l0.2,4.2c0,1.4-0.1,2.8-0.2,4.2
	l-0.1,2.1c0,0.7-0.2,1.4-0.3,2.1l-0.7,4.2c-0.3,1.4-0.7,2.7-1.1,4.1l-0.6,2l-0.7,2c-0.5,1.3-1,2.6-1.5,3.9l-1.8,3.8
	c-2.6,5-5.8,9.6-9.6,13.7c-0.5,0.5-0.9,1.1-1.4,1.6l-1.5,1.5c-1,1-2,2-3.1,2.8l-3.4,2.6c-0.6,0.4-1.1,0.8-1.8,1.2l-1.8,1.1
	c-2.4,1.4-4.9,2.7-7.5,3.8c-1.3,0.5-2.7,0.9-4,1.4c-0.7,0.2-1.3,0.5-2,0.6l-2,0.5c-5.4,1.3-10.9,1.9-16.5,1.7l-4.2-0.2l-1-0.1
	l-1-0.2l-2.1-0.3c-2.8-0.4-5.5-1-8.2-1.8c-1.3-0.4-2.6-0.9-4-1.4l-2-0.7c-0.7-0.3-1.3-0.6-1.9-0.9c-1.3-0.6-2.5-1.2-3.8-1.8
	l-3.6-2.2c-4.7-3-8.9-6.6-12.6-10.8l-1.4-1.5l-1.3-1.7c-0.8-1.1-1.7-2.2-2.5-3.4c-1.5-2.3-2.9-4.8-4.1-7.3c-1.2-2.5-2.2-5.1-3.1-7.8
	c-0.4-1.3-0.7-2.7-1-4.1l-0.5-2l-0.3-2.1c-0.2-1.4-0.4-2.8-0.5-4.1l-0.2-4.1c0-0.7-0.1-1.4,0-2.1l0.1-2.1c0.1-1.4,0.1-2.8,0.3-4.1
	c0.6-6.1,2.1-12.1,4.4-17.8l1.9-4.2c0.7-1.4,1.5-2.7,2.3-4c0.8-1.3,1.6-2.6,2.6-3.9l1.4-1.9c0.5-0.6,1-1.2,1.5-1.8
	c0.9-1,1.8-2,2.7-3l3-2.7c0.5-0.4,1-0.9,1.5-1.3l1.6-1.2c1.1-0.8,2.1-1.7,3.2-2.4c2.3-1.4,4.5-3,6.8-4.1c1.2-0.6,2.3-1.3,3.5-1.9
	l3.6-1.7c0.8-0.4,0.2-0.7-0.6-0.3c-1.2,0.5-2.3,1-3.5,1.6c-1.2,0.5-2.3,1.2-3.5,1.7c-2.4,1.1-4.5,2.5-6.8,3.8
	c-4.5,2.7-8.5,6-12.1,9.9c-1.9,2-3.5,4.1-5.1,6.4c-0.8,1.1-1.4,2.3-2.1,3.5c-0.7,1.2-1.3,2.4-1.9,3.6l-1.7,3.7
	c-0.5,1.3-0.9,2.6-1.4,3.8l-0.7,1.9c-0.2,0.6-0.3,1.3-0.5,2l-1,4c-0.3,1.4-0.5,2.8-0.7,4.2l-0.3,2.1c-0.1,0.7-0.1,1.4-0.2,2.1
	l-0.2,4.2c0,1.4,0.1,2.8,0.1,4.2l0.1,2.1c0.1,0.7,0.2,1.4,0.3,2.1l0.6,4.2l1,4.1c0.2,0.7,0.3,1.4,0.5,2.1l0.7,2
	c1.9,5.4,4.5,10.5,7.8,15.1l2.6,3.4c0.9,1.1,1.9,2.1,2.8,3.2l1.5,1.5l1.6,1.4c1.1,0.9,2.1,1.9,3.2,2.8c4.4,3.5,9.3,6.5,14.5,8.9
	c1.3,0.6,2.7,1,4,1.5l2,0.7c0.7,0.2,1.4,0.4,2,0.6c1.4,0.4,2.8,0.8,4.1,1.1l4.2,0.7c0.7,0.1,1.4,0.3,2.1,0.3l2.1,0.1
	c1.4,0.1,2.8,0.2,4.3,0.2l4.3-0.1c0.7,0,1.4,0,2.1-0.1l2.1-0.3c5.7-0.7,11.2-2.2,16.5-4.5l3.9-1.8c1.3-0.6,2.5-1.4,3.7-2.1l1.8-1.1
	c0.6-0.4,1.2-0.8,1.8-1.2c1.2-0.8,2.3-1.7,3.5-2.5c2.2-1.8,4.3-3.8,6.3-5.9l1.5-1.6c0.5-0.5,1-1.1,1.4-1.6l2.6-3.4
	c0.4-0.6,0.8-1.2,1.2-1.8l1.1-1.8l1.1-1.9c0.4-0.6,0.6-1.3,1-1.9l1.8-3.9c0.5-1.4,1-2.7,1.4-4.1c0.2-0.7,0.5-1.4,0.7-2l0.5-2.1
	c0.3-1.4,0.7-2.8,0.9-4.2c0.5-2.8,0.8-5.7,0.9-8.5l0.1-2.4v-1.2C150.3,463,150.3,462.7,150.2,462.2"/>
</svg>
