<svg id="Layer_1" data-name="Layer 1" xmlns="http://www.w3.org/2000/svg" xmlns:xlink="http://www.w3.org/1999/xlink" viewBox="0 0 805.12 352.67"><defs><style>.cls-1{fill:#fff;}.cls-2{fill:url(#linear-gradient);}.cls-3{fill:url(#linear-gradient-2);}.cls-4{mask:url(#mask);}.cls-5{fill:url(#linear-gradient-3);}.cls-6{fill:url(#linear-gradient-4);}</style><linearGradient id="linear-gradient" x1="239.69" y1="451.5" x2="239.69" y2="450.51" gradientTransform="matrix(295.12, 0, 0, -214.19, -70132.43, 96703.63)" gradientUnits="userSpaceOnUse"><stop offset="0" stop-color="#f5f6f7"/><stop offset="1" stop-color="#f5f6f7" stop-opacity="0"/></linearGradient><linearGradient id="linear-gradient-2" x1="238.95" y1="451.05" x2="239.95" y2="451.05" gradientTransform="matrix(228.54, 0, 0, -238.72, -54661.69, 107896.32)" gradientUnits="userSpaceOnUse"><stop offset="0" stop-color="#004e7f"/><stop offset="1" stop-color="#b32c39"/></linearGradient><mask id="mask" x="0" y="103" width="287.49" height="249.67" maskUnits="userSpaceOnUse"><g transform="translate(53 0)"><g id="f"><path id="c" class="cls-1" d="M.44,115.8C26.28,115.8,87.38,171,87.38,197a46.89,46.89,0,0,1-46.8,47c-25.84,0-61-21-61-47s35.16-47,61-47M97.31,315C82,226.71,225,209,157.21,175.76s-65-72.7-116.63-72.76S-53,145.07-53,197,112.61,403.29,97.31,315Z"/></g></g></mask><linearGradient id="linear-gradient-3" x1="239.87" y1="451.14" x2="238.94" y2="450.79" gradientTransform="matrix(223.86, 0, 0, -224.15, -53474.98, 101337.24)" gradientUnits="userSpaceOnUse"><stop offset="0" stop-color="#fff" stop-opacity="0.64"/><stop offset="1" stop-color="#fff" stop-opacity="0"/></linearGradient><linearGradient id="linear-gradient-4" x1="238.49" y1="451.09" x2="238.65" y2="450.13" gradientTransform="matrix(124.3, 0, 0, -121.03, -29609, 54739)" gradientUnits="userSpaceOnUse"><stop offset="0" stop-color="#3525d3"/><stop offset="1" stop-color="#08f" stop-opacity="0.32"/></linearGradient></defs><title>header-bg-left</title><path id="b" class="cls-2" d="M618.51,214.18H556.28c-18.1-19.49-41.23-39-79.6-51.27-90.35-28.78,160.5-6.23,146.9-128S765,144.7,751.26,199.75a104.46,104.46,0,0,1-4.73,14.43H698.88c8.69-5.81,15.23-13.54,17.58-23,6.85-27.51-24.61-59-51.83-65.82s-54.84,10-61.7,37.51C600,174.51,607.21,194.47,618.51,214.18Z" transform="translate(53 0)"/><path id="c-2" data-name="c" class="cls-3" d="M.44,115.8C26.28,115.8,87.38,171,87.38,197a46.89,46.89,0,0,1-46.8,47c-25.84,0-61-21-61-47s35.16-47,61-47M97.31,315C82,226.71,225,209,157.21,175.76s-65-72.7-116.63-72.76S-53,145.07-53,197,112.61,403.29,97.31,315Z" transform="translate(53 0)"/><g class="cls-4"><path class="cls-5" d="M210,163.55l-23.46,47.23c-6.25-25.07-35.16-54.1-60.34-47.82s-37.08,45.48-30.83,70.55a46.9,46.9,0,0,0,56.91,34c25.18-6.28,64-78.92,57.72-104ZM40.1,305.74c-82,36.21,27.82-161.84,78.17-174.4s101.3,17.93,113.81,68.07-26.53,57-42.39,130.76S122.07,269.53,40.1,305.74Z" transform="translate(53 0)"/></g><path class="cls-6" d="M107.24,198.79l-.34-4.72c-.16-1.56-.5-3.1-.76-4.65-.15-.77-.27-1.55-.45-2.31l-.64-2.27-.65-2.27-.32-1.12-.42-1.1L101.93,176a69.4,69.4,0,0,0-4.44-8.24A72.81,72.81,0,0,0,85.85,153c-.58-.55-1.1-1.15-1.72-1.64l-1.83-1.51A36.32,36.32,0,0,0,78.49,147c-1.34-.85-2.68-1.73-4.07-2.49s-2.87-1.37-4.33-2c-.76-.33-.68-.13.09.24,1.27.61,2.53,1.24,3.77,1.9s2.37,1.5,3.54,2.26l1.72,1.19c.58.39,1.08.88,1.62,1.32L84,152.12c1,1,1.92,2,2.88,3,.47.5,1,1,1.41,1.5l1.31,1.6c.85,1.07,1.76,2.1,2.57,3.2l2.39,3.35a63.22,63.22,0,0,1,7.52,14.45,60.75,60.75,0,0,1,2.34,7.83c.31,1.33.47,2.69.69,4a29.32,29.32,0,0,1,.45,4.06l.18,4.21c0,1.4-.13,2.81-.2,4.21l-.14,2.1c0,.7-.2,1.39-.3,2.08l-.71,4.15c-.32,1.36-.71,2.71-1.08,4.07l-.57,2-.74,2c-.51,1.31-1,2.64-1.54,3.91l-1.85,3.77A65.91,65.91,0,0,1,89,241.35c-.47.53-.92,1.07-1.41,1.57l-1.53,1.45c-1,.95-2,2-3.12,2.83l-3.36,2.56a14.89,14.89,0,0,1-1.75,1.18L76.07,252a60.7,60.7,0,0,1-7.53,3.75c-1.32.47-2.66.92-4,1.36-.66.21-1.32.46-2,.63l-2.05.48A65.16,65.16,0,0,1,44,260l-4.16-.22-1-.06-1-.15-2.06-.3a61.81,61.81,0,0,1-8.16-1.77c-1.34-.36-2.63-.9-3.95-1.35l-2-.72c-.65-.26-1.27-.58-1.9-.87-1.26-.61-2.52-1.19-3.76-1.83l-3.56-2.17A60.79,60.79,0,0,1-.27,239.72l-1.41-1.54-1.27-1.66c-.82-1.12-1.7-2.2-2.47-3.36a59.76,59.76,0,0,1-4.11-7.27,55.35,55.35,0,0,1-3.06-7.78c-.4-1.34-.68-2.71-1-4.06l-.47-2-.29-2.07c-.18-1.37-.38-2.75-.52-4.13l-.16-4.15c0-.69-.07-1.38-.05-2.07l.11-2.07c.09-1.38.12-2.76.25-4.14a66.84,66.84,0,0,1,4.41-17.83l1.91-4.22c.71-1.36,1.51-2.68,2.27-4a38,38,0,0,1,2.58-3.85l1.37-1.88c.46-.62,1-1.18,1.5-1.77.89-1,1.77-2,2.68-3l3-2.72c.5-.44,1-.92,1.51-1.33l1.6-1.22c1.07-.8,2.11-1.66,3.22-2.4,2.27-1.41,4.46-3,6.84-4.14,1.18-.61,2.31-1.33,3.51-1.87l3.57-1.68c.82-.39.2-.68-.64-.3-1.17.54-2.34,1-3.53,1.55s-2.29,1.17-3.45,1.73c-2.36,1.07-4.53,2.49-6.8,3.77A58.08,58.08,0,0,0-1.34,158.1a54.38,54.38,0,0,0-5.08,6.41c-.78,1.11-1.42,2.33-2.12,3.49a33.81,33.81,0,0,0-1.91,3.62l-1.68,3.73c-.51,1.26-.91,2.56-1.36,3.85l-.66,1.92c-.22.65-.34,1.32-.51,2l-1,3.95c-.28,1.38-.45,2.79-.68,4.18l-.31,2.1c-.08.7-.1,1.4-.15,2.1l-.24,4.23c0,1.4.09,2.81.13,4.22l.09,2.12c.07.7.18,1.4.27,2.1l.6,4.21,1,4.14c.18.68.33,1.38.54,2.06l.71,2A58.09,58.09,0,0,0-5.8,235.57L-3.22,239c.91,1.09,1.9,2.11,2.85,3.16l1.45,1.55,1.57,1.43c1.06.94,2.08,1.93,3.18,2.81a65.4,65.4,0,0,0,7,4.88,65.81,65.81,0,0,0,7.52,4c1.3.57,2.65,1,4,1.54l2,.74c.68.2,1.37.38,2.05.56,1.38.37,2.75.75,4.14,1.07l4.21.69c.7.1,1.4.25,2.11.3l2.13.14c1.41.07,2.83.2,4.25.22l4.26-.14c.71,0,1.42,0,2.13-.12l2.12-.28A60,60,0,0,0,70.21,257l3.87-1.81c1.29-.62,2.48-1.4,3.72-2.11l1.84-1.1c.61-.37,1.17-.82,1.75-1.23,1.16-.84,2.32-1.67,3.46-2.54a66.78,66.78,0,0,0,6.26-5.87l1.46-1.57a19.86,19.86,0,0,0,1.4-1.64l2.61-3.42a18,18,0,0,0,1.2-1.79l1.12-1.84,1.11-1.85c.37-.62.64-1.29,1-1.93l1.81-3.92c.5-1.35,1-2.71,1.43-4.07.22-.68.47-1.35.66-2l.51-2.1c.31-1.4.68-2.78.92-4.19a67.85,67.85,0,0,0,.88-8.5l.09-2.36,0-1.19c0-.39,0-.78-.06-1.18" transform="translate(53 0)"/></svg>