<svg id="Layer_1" data-name="Layer 1" xmlns="http://www.w3.org/2000/svg" xmlns:xlink="http://www.w3.org/1999/xlink" viewBox="0 0 113 30"><defs><style>.cls-1{fill:url(#linear-gradient);}.cls-2{fill:url(#New_Gradient_Swatch_1);}</style><linearGradient id="linear-gradient" y1="19.5" x2="113" y2="19.5" gradientUnits="userSpaceOnUse"><stop offset="0" stop-color="#004e7f"/><stop offset="1" stop-color="#b32c39"/></linearGradient><linearGradient id="New_Gradient_Swatch_1" x1="73" y1="16.5" x2="102" y2="16.5" gradientUnits="userSpaceOnUse"><stop offset="0" stop-color="#004e7f"/><stop offset="0.13" stop-color="#2d456d"/><stop offset="0.26" stop-color="#563e5d"/><stop offset="0.4" stop-color="#783750"/><stop offset="0.54" stop-color="#923246"/><stop offset="0.69" stop-color="#a42f3f"/><stop offset="0.84" stop-color="#af2d3a"/><stop offset="1" stop-color="#b32c39"/></linearGradient></defs><title>hubspot-logo</title><path class="cls-1" d="M0,7H3.94v8.21h8.31V7H16.2V27.15H12.25V18.77H3.94v8.38H0ZM28.68,20.59a3.27,3.27,0,0,1-6.53,0V11.91H18.41v8.68a6.8,6.8,0,0,0,7,6.56,6.8,6.8,0,0,0,7-6.56V11.91H28.68ZM42.85,12a6,6,0,0,0-4.4,1.66V7H34.7V19.36a7.59,7.59,0,0,0,7.57,7.79c4.46,0,8.36-3.22,8.36-7.57A7.68,7.68,0,0,0,42.85,12Zm.09,11.89a4.32,4.32,0,1,1,0-8.63,4.32,4.32,0,0,1,0,8.63Zm14-11c0-1.77,1.26-2.33,2.64-2.33a5.75,5.75,0,0,1,3.52,1.74l2.45-2.69A7.94,7.94,0,0,0,59.79,7c-4.06,0-7,2.22-7,5.89,0,6.81,8.94,4.65,8.94,8.47a2.52,2.52,0,0,1-2.63,2.21c-2.21,0-2.93-1-4-2.07l-2.72,2.63a8.25,8.25,0,0,0,6.46,3c3.85,0,7-2.24,7-5.75C65.86,13.82,56.92,16.18,56.92,12.9Zm18.81-1.08a7.59,7.59,0,0,0-7.57,7.79V32h3.75V25.3A5.94,5.94,0,0,0,76.31,27a7.68,7.68,0,0,0,7.78-7.56C84.09,15,80.19,11.82,75.73,11.82ZM76.4,23.7a4.32,4.32,0,1,1,0-8.63,4.32,4.32,0,0,1,0,8.63Zm35.28.2c-2.21,0-2.84-.9-2.84-2.27V15.55h3.44V12.46h-3.43V8.4l-3.8,1.6V22.39c0,3.16,2.33,4.76,5.53,4.76a8.39,8.39,0,0,0,1.49-.11l.93-3.19c-.42,0-.9,0-1.32,0Z" transform="translate(0 -2)"/><path class="cls-2" d="M101,15.77a7.73,7.73,0,0,0-3-2.65,8.45,8.45,0,0,0-3-.94V8.67a2.61,2.61,0,0,0,1.78-2.43,3,3,0,0,0-5.93,0,2.57,2.57,0,0,0,1.74,2.43v3.51a9.47,9.47,0,0,0-2.62.74L79.43,5.74A2.56,2.56,0,0,0,79.57,5,3.3,3.3,0,0,0,73,5a3.13,3.13,0,0,0,3.29,3A3.5,3.5,0,0,0,78,7.48l.69.47,9.44,6.12a7.72,7.72,0,0,0-1.34,1.4A6.17,6.17,0,0,0,85.55,19v.27a6.69,6.69,0,0,0,.52,2.56,6.41,6.41,0,0,0,1.22,1.91l-3.13,2.82a2.74,2.74,0,0,0-2.67.53,2.13,2.13,0,0,0-.74,1.61,2.16,2.16,0,0,0,.74,1.62,2.74,2.74,0,0,0,3.59,0,2.13,2.13,0,0,0,.74-1.62,2.25,2.25,0,0,0-.11-.68L89,25.12a8.74,8.74,0,0,0,1.44.7,9,9,0,0,0,3.36.64H94a8.67,8.67,0,0,0,3.84-.87,7.68,7.68,0,0,0,3-2.55A6.27,6.27,0,0,0,102,19.43v-.06A6.48,6.48,0,0,0,101,15.77ZM97,21.89a4.32,4.32,0,0,1-3,1.42h-.19a4.58,4.58,0,0,1-1.92-.46,4.3,4.3,0,0,1-1.67-1.38,2.94,2.94,0,0,1-.7-1.87v-.2A3.5,3.5,0,0,1,90,17.54,4.34,4.34,0,0,1,91.55,16a4.24,4.24,0,0,1,2.17-.59h.07a4.69,4.69,0,0,1,2,.43,4.06,4.06,0,0,1,1.6,1.3A4,4,0,0,1,98.14,19c0,.14,0,.28,0,.41A3.5,3.5,0,0,1,97,21.89Z" transform="translate(0 -2)"/></svg>