<?xml version="1.0" encoding="utf-8"?>
<!-- Generator: Adobe Illustrator 22.1.0, SVG Export Plug-In . SVG Version: 6.00 Build 0)  -->
<svg version="1.1" id="Layer_1" xmlns="http://www.w3.org/2000/svg" xmlns:xlink="http://www.w3.org/1999/xlink" x="0px" y="0px"
	 viewBox="0 0 150 31" style="enable-background:new 0 0 150 31;" xml:space="preserve">
<style type="text/css">
	.st0{fill:url(#SVGID_1_);}
	.st1{fill:url(#SVGID_2_);}
</style>
<title>microsoft-logo</title>
<linearGradient id="SVGID_1_" gradientUnits="userSpaceOnUse" x1="41" y1="14.4586" x2="150" y2="14.4586" gradientTransform="matrix(1 0 0 -1 0 30)">
	<stop  offset="0" style="stop-color:#004E7F"/>
	<stop  offset="0.1609" style="stop-color:#2C466E"/>
	<stop  offset="0.361" style="stop-color:#5C3D5B"/>
	<stop  offset="0.5513" style="stop-color:#82354C"/>
	<stop  offset="0.7266" style="stop-color:#9D3042"/>
	<stop  offset="0.8816" style="stop-color:#AD2D3B"/>
	<stop  offset="1" style="stop-color:#B32C39"/>
</linearGradient>
<path class="st0" d="M150,14.5v-2.6h-3.3V7.8h-0.1l-3.1,1h-0.1v3.1h-4.9v-1.7c0-0.7,0.1-1.3,0.5-1.8c0.4-0.4,0.9-0.6,1.5-0.6
	c0.5,0,1,0.1,1.4,0.3l0.1,0.1V5.3h-0.1c-0.6-0.2-1.2-0.3-1.8-0.3c-0.9,0-1.8,0.2-2.6,0.6c-0.8,0.4-1.4,1-1.8,1.8
	c-0.4,0.8-0.6,1.7-0.6,2.6v1.9H133v2.6h2.3v11.2h3.3V14.5h4.9v7.1c0,2.9,1.4,4.4,4.1,4.4c0.5,0,0.9-0.1,1.4-0.2
	c0.3-0.1,0.7-0.2,1-0.3l0,0v-2.7l-0.1,0.1c-0.2,0.1-0.4,0.2-0.7,0.3c-0.2,0.1-0.4,0.1-0.6,0.1c-0.5,0-1-0.1-1.4-0.5
	c-0.3-0.5-0.5-1.1-0.4-1.8v-6.5H150z M125.6,23.3c-1.1,0.1-2.1-0.4-2.8-1.2c-0.7-1-1.1-2.1-1-3.3c-0.1-1.2,0.3-2.4,1-3.4
	c0.7-0.8,1.7-1.3,2.8-1.2c1-0.1,2,0.4,2.7,1.1c0.7,1,1.1,2.2,1,3.4c0.1,1.2-0.2,2.4-0.9,3.4C127.7,23,126.7,23.4,125.6,23.3z
	 M125.8,11.5c-2-0.1-3.9,0.6-5.4,2c-1.4,1.5-2.1,3.4-1.9,5.4c-0.1,1.9,0.6,3.8,1.9,5.2c1.4,1.3,3.2,2,5.1,1.9c2,0.1,3.9-0.6,5.3-2
	c1.4-1.4,2.1-3.4,2-5.4c0.1-1.9-0.6-3.8-1.8-5.2C129.5,12.1,127.7,11.4,125.8,11.5z M113.1,11.5c-1.4-0.1-2.7,0.4-3.8,1.2
	c-1,0.7-1.5,1.9-1.5,3.1c0,0.6,0.1,1.2,0.3,1.7c0.2,0.5,0.6,0.9,1,1.3c0.6,0.5,1.3,0.8,2,1.1c0.6,0.2,1.1,0.5,1.7,0.8
	c0.3,0.1,0.5,0.4,0.7,0.6c0.1,0.2,0.2,0.5,0.2,0.8c0,0.9-0.7,1.4-2.1,1.4c-0.6,0-1.2-0.1-1.8-0.3c-0.7-0.2-1.3-0.5-1.8-0.9l-0.1-0.1
	v3.2h0.1c0.6,0.2,1.1,0.4,1.8,0.5c0.6,0.1,1.2,0.2,1.9,0.2c1.4,0.1,2.8-0.3,4-1.2c1-0.7,1.5-1.9,1.5-3.1c0-0.9-0.3-1.7-0.8-2.4
	c-0.8-0.8-1.7-1.4-2.7-1.7c-0.7-0.2-1.4-0.6-1.9-1c-0.3-0.3-0.4-0.7-0.4-1.1c0-0.4,0.2-0.8,0.5-1c0.4-0.3,0.9-0.4,1.4-0.4
	c0.6,0,1.1,0.1,1.7,0.3c0.5,0.2,1,0.4,1.5,0.7l0.1,0.1v-3h-0.1c-0.5-0.2-1-0.3-1.5-0.4C114.2,11.6,113.7,11.5,113.1,11.5z
	 M99.2,23.3c-1.1,0.1-2.1-0.4-2.8-1.2c-0.7-1-1.1-2.1-1-3.3c-0.1-1.2,0.3-2.4,1-3.4c0.7-0.8,1.7-1.3,2.8-1.2c1-0.1,2,0.4,2.7,1.1
	c0.7,1,1.1,2.2,1,3.4c0.1,1.2-0.2,2.4-0.9,3.4C101.3,23,100.3,23.4,99.2,23.3z M99.4,11.5c-2-0.1-3.9,0.6-5.4,2
	c-1.4,1.5-2.1,3.4-2,5.4c-0.1,1.9,0.7,3.8,2,5.2c1.4,1.3,3.2,2,5.1,1.9c2,0.1,3.9-0.6,5.3-2c1.4-1.4,2.1-3.4,2-5.4
	c0.1-1.9-0.6-3.8-1.8-5.2C103.1,12.1,101.3,11.4,99.4,11.5L99.4,11.5z M87.1,14.3v-2.4h-3.3v13.8h3.3v-7.1c0-1,0.2-2.1,0.8-2.9
	c0.5-0.7,1.3-1.1,2.1-1.1c0.3,0,0.7,0.1,1,0.1c0.3,0.1,0.5,0.2,0.8,0.3l0.1,0.1v-3.3l0,0c-1.2-0.4-2.5-0.2-3.4,0.6
	c-0.6,0.5-1,1.1-1.3,1.9l0,0L87.1,14.3z M78,11.5c-1.4,0-2.8,0.3-4,1c-1.1,0.6-2,1.5-2.6,2.7c-0.6,1.2-0.9,2.6-0.9,4
	c0,1.2,0.3,2.5,0.9,3.5c0.6,1,1.4,1.9,2.4,2.5c1.1,0.6,2.3,0.9,3.6,0.9c1.4,0,2.7-0.3,3.9-0.9l0,0v-3l-0.1,0.1
	c-0.5,0.4-1,0.6-1.6,0.8c-0.5,0.2-1,0.3-1.6,0.3c-1.1,0-2.2-0.4-3-1.2c-0.8-0.9-1.2-2.1-1.1-3.3c-0.1-1.2,0.4-2.4,1.2-3.4
	c0.8-0.8,1.9-1.3,3-1.3c1.1,0,2.2,0.4,3.1,1.1l0.1,0.1v-3.2l0,0c-0.5-0.2-1-0.4-1.5-0.5C79.2,11.6,78.6,11.5,78,11.5z M68.3,11.9H65
	v13.8h3.3L68.3,11.9z M66.7,6c-0.5,0-1,0.2-1.4,0.5c-0.4,0.3-0.6,0.8-0.6,1.4c0,0.5,0.2,1,0.6,1.3c0.8,0.7,2,0.7,2.8,0
	c0.4-0.3,0.6-0.8,0.6-1.3c0-0.5-0.2-1-0.6-1.3C67.7,6.2,67.2,6,66.7,6z M58.6,10.9v14.8h3.3V6.4h-4.6l-5.8,14.3L45.8,6.4H41v19.3
	h3.1V10.9h0.1l6,14.8h2.4L58.6,10.9L58.6,10.9z"/>
<linearGradient id="SVGID_2_" gradientUnits="userSpaceOnUse" x1="0" y1="14.5" x2="32" y2="14.5" gradientTransform="matrix(1 0 0 -1 0 30)">
	<stop  offset="0" style="stop-color:#004E7F"/>
	<stop  offset="0.8587" style="stop-color:#004E7F"/>
	<stop  offset="1" style="stop-color:#004E7F"/>
</linearGradient>
<path class="st1" d="M15,14H0V0h15V14z M32,14H17V0h15V14z M15,31H0V17h15V31z M32,31H17V17h15V31z"/>
</svg>
