<svg width="1440" height="387" xmlns="http://www.w3.org/2000/svg">  <defs>    <linearGradient x1="0%" y1="51.829%" x2="68.403%" y2="51.829%" id="a">      <stop stop-color="#F5F6F7" offset="0%"/>      <stop stop-color="#F5F6F7" stop-opacity="0" offset="100%"/>    </linearGradient>    <linearGradient x1="50%" y1="0%" x2="66.362%" y2="96.878%" id="b">      <stop stop-color="#3525D3" offset="0%"/>      <stop stop-color="#08F" stop-opacity=".32" offset="100%"/>    </linearGradient>    <linearGradient x1="74.991%" y1="4.88%" x2="0%" y2="89.425%" id="c">      <stop stop-color="#00C7FA" offset="0%"/>      <stop stop-color="#00C7FA" stop-opacity=".48" offset="100%"/>    </linearGradient>  </defs>  <g fill="none" fill-rule="evenodd">    <path d="M500.24 187.593c-34.726-55.437-91.669-15.351-163.06-37.841-55.374 34.602-57.12 155.471-.013 135.154 57.107-20.318 70.23 100.435 125.605 65.833 55.374-34.602 72.15-107.645 37.469-163.146zm15.487-9.183c39.827 63.736 20.476 147.67-43.222 187.472-63.698 39.803-147.62 20.402-187.447-43.334-39.738-63.751-74.89-178.233-11.266-218.087 63.698-39.803 202.11 10.214 241.935 73.949z" fill="url(#a)"/>    <path d="M340.241 55.875l-.332-4.555c-.15-1.511-.484-3.005-.735-4.502-.143-.747-.257-1.498-.431-2.236l-.616-2.195-.629-2.187-.318-1.09-.407-1.063-1.667-4.226c-1.338-2.711-2.614-5.457-4.296-7.97-3.2-5.12-6.811-10.063-11.273-14.261-.553-.526-1.062-1.107-1.66-1.584l-1.775-1.46c-1.198-.958-2.369-1.964-3.69-2.754-1.297-.824-2.586-1.672-3.934-2.41a98.186 98.186 0 0 0-4.19-1.934c-.736-.318-.662-.126.083.23 1.233.59 2.45 1.204 3.651 1.838 1.201.634 2.297 1.451 3.426 2.19l1.667 1.15c.556.378 1.048.849 1.57 1.271l3.05 2.623c.95.944 1.868 1.917 2.792 2.874.457.484.93.95 1.37 1.447l1.261 1.547c.826 1.04 1.705 2.03 2.494 3.093l2.307 3.241c2.932 4.348 5.541 8.98 7.281 13.971 1.02 2.443 1.584 5.031 2.264 7.58.304 1.283.45 2.597.667 3.897.197 1.302.423 2.602.44 3.92l.171 4.074c.017 1.356-.125 2.713-.194 4.066l-.138 2.031c-.036.677-.195 1.343-.289 2.014l-.682 4.012c-.314 1.319-.694 2.623-1.047 3.932l-.552 1.956-.718 1.9c-.496 1.262-.935 2.546-1.49 3.779l-1.796 3.64c-2.589 4.73-5.516 9.352-9.248 13.312-.454.505-.89 1.03-1.362 1.517l-1.48 1.403c-1.005.914-1.951 1.9-3.024 2.737l-3.248 2.473c-.535.425-1.108.79-1.694 1.137l-1.747 1.056c-2.285 1.484-4.832 2.49-7.29 3.627-1.277.458-2.567.886-3.852 1.316-.646.204-1.279.446-1.935.612l-1.98.457c-5.248 1.364-10.673 1.676-16.03 1.67l-4.023-.219-1.005-.057c-.334-.034-.666-.093-1-.14l-1.996-.298c-2.681-.304-5.279-1.041-7.892-1.704-1.302-.351-2.55-.873-3.825-1.31l-1.9-.695c-.626-.251-1.224-.563-1.837-.844-1.214-.584-2.44-1.15-3.635-1.77l-3.452-2.099c-4.476-2.968-8.715-6.367-12.233-10.448l-1.36-1.49-1.225-1.605c-.8-1.08-1.653-2.127-2.396-3.249-1.414-2.291-2.89-4.552-3.98-7.028-1.264-2.39-2.07-4.981-2.96-7.526-.386-1.292-.658-2.618-.98-3.925l-.454-1.968-.278-2c-.172-1.333-.364-2.665-.507-3.997l-.146-4.014c-.015-.668-.068-1.336-.049-2.003l.106-2.003c.083-1.332.111-2.67.236-3.998a64.688 64.688 0 0 1 4.274-17.242l1.844-4.077c.687-1.32 1.46-2.6 2.202-3.897.707-1.324 1.632-2.502 2.494-3.726l1.322-1.818c.446-.602.972-1.139 1.459-1.71.854-.959 1.707-1.928 2.593-2.867l2.86-2.629c.487-.426.944-.89 1.46-1.285l1.547-1.18c1.044-.769 2.044-1.603 3.123-2.316 2.197-1.371 4.317-2.863 6.62-4.007 1.14-.591 2.23-1.284 3.394-1.808 1.158-.545 2.311-1.085 3.459-1.624.79-.38.191-.662-.62-.291a127.36 127.36 0 0 1-3.416 1.502c-1.124.53-2.221 1.13-3.344 1.674-2.282 1.03-4.383 2.404-6.582 3.64-4.21 2.728-8.365 5.755-11.725 9.55-1.858 1.875-3.365 4.055-4.915 6.19-.763 1.074-1.376 2.253-2.056 3.382-.662 1.143-1.34 2.275-1.85 3.496l-1.628 3.605c-.492 1.22-.88 2.482-1.317 3.72l-.633 1.866c-.21.62-.329 1.27-.495 1.903l-.931 3.815c-.27 1.34-.436 2.697-.654 4.046l-.304 2.025c-.079.677-.094 1.358-.144 2.038L220 56.708c.012 1.361.083 2.724.13 4.087l.088 2.046c.063.679.172 1.355.258 2.034l.58 4.068.973 4c.175.664.319 1.338.527 1.992l.69 1.944c1.713 5.237 4.457 10.085 7.598 14.57l2.497 3.273c.88 1.052 1.837 2.038 2.759 3.052l1.402 1.5 1.52 1.384c1.025.907 2.007 1.866 3.077 2.718 2.19 1.652 4.34 3.363 6.735 4.72 2.292 1.52 4.81 2.64 7.277 3.85 1.257.55 2.563.995 3.846 1.487l1.938.715c.658.194 1.326.365 1.989.546 1.33.35 2.66.72 4 1.034l4.077.663c.682.095 1.36.24 2.044.289l2.057.135c1.371.075 2.743.2 4.115.216l4.124-.138c.686-.04 1.378-.022 2.06-.117l2.052-.268c5.5-.575 10.865-2.195 15.99-4.308l3.748-1.753c1.244-.598 2.398-1.36 3.6-2.043l1.78-1.06c.589-.364 1.13-.794 1.696-1.19 1.12-.812 2.243-1.62 3.345-2.455 2.059-1.842 4.237-3.579 6.058-5.676l1.414-1.525c.476-.505.943-1.018 1.351-1.58l2.528-3.31c.437-.54.794-1.137 1.16-1.728l1.088-1.78 1.07-1.792c.363-.593.621-1.243.933-1.865l1.753-3.788c.48-1.304.93-2.621 1.38-3.935.215-.66.461-1.31.645-1.979l.486-2.024c.304-1.353.666-2.692.897-4.054.347-2.742.848-5.463.853-8.216l.08-2.288.032-1.143c0-.38-.04-.76-.059-1.14" fill="url(#b)"/>    <path d="M1098.338 204.788c-2.542 5.241-4.586 10.771-7.955 15.68-.418.662-1.957-.414-1.658-1.072 2.858-5.634 5.597-11.024 7.903-16.682 2.332-5.588 4.752-11.593 4.82-18.007.047-6.94-1.152-13.962-3.721-20.417a52.104 52.104 0 0 0-2.362-4.63l-3.025-4.2c-1.081-1.333-2.274-2.57-3.318-3.882-1.023-1.328-2.305-2.446-3.302-3.778-.427-.515-.797-1.084-1.229-1.6a40.543 40.543 0 0 1-1.293-1.555c-.862-1.039-1.615-2.207-2.518-3.239-1.863-1.99-3.647-4.206-6.011-5.66-4.498-3.26-9.745-5.177-14.874-7.01a95.054 95.054 0 0 0-3.948-1.146c-1.351-.24-2.714-.417-4.064-.625-1.343-.258-2.71-.314-4.074-.39-1.36-.05-2.708-.302-4.068-.294 1.347 4.193-5.49 22.137-10.962 23.18-5.428 1.218 3.387 26.763-1.57 29.258-1.205.686-21.818-44.557-23.072-43.93-.619.328-1.275.608-1.88.96l-1.795 1.104c-1.186.758-2.464 1.426-3.588 2.292a76.24 76.24 0 0 0-3.28 2.738c-4.098 4.031 50.968 12.396 48.204 17.264-1.593 2.357-60.31 1.901-61.558 4.466-.505 1.327-.942 2.682-1.43 4.023-.228.675-.503 1.34-.701 2.026l-.529 2.076c-1.606 5.432-4.125 11.08-4.14 17.154-.024 6.833 2.383 13.398 4.528 19.764 2.19 6.404 38.944 2.282 43.213 7.693 4.238 5.448-23.938 20.268-18.158 24.097 5.755 3.729 41.717 32.767 48.756 34.491 6.782 1.606-16.263-22.667-9.436-23.432 6.858-.718 13.436-2.779 19.676-5.4 6.839-2.925 12.47-7.935 17.415-13.043 1.636-1.636 3.067-3.417 4.747-4.929 1.541-1.65 3.143-3.224 5.167-4.563.225-.153 42.102-13.656 41.89-13.475-4.89 4.508-93.24 36.709-55.967 29.066 37.273-7.642 18.344 11.757 10.62 14.195-7.479 2.391-50.064 52.454-58.283 52.145-8.179-.31-13.054-53.169-20.552-56.658-6.654-3.238-57.733 69.69-18.826-12.008-5.375-5.272-9.516-11.607-12.952-18.151-3.514-6.565-5.164-13.865-6.412-20.998-1.222-7.13-2.446-14.502-1.424-21.832.984-7.273 3.188-14.342 6.326-20.928 3.21-6.58 7.712-12.35 12.578-17.66 5.018-5.238 11.11-9.206 17.302-12.717 6.232-3.5 13.016-5.976 19.999-7.428 1.766-.287 3.494-.828 5.27-1.105l5.35-.962c3.601-.371 7.29-.775 10.924-.24l2.717.341 2.665.65c1.757.499 3.555.813 5.24 1.537l5.086 1.927c1.634.786 3.267 1.556 4.912 2.282 6.493 3.193 11.952 7.945 16.965 12.845 4.995 4.919 9.88 10.155 13.137 16.422 2.87 5.83 5.553 11.954 6.382 18.387.681 6.461-.597 12.766-1.616 18.756-1.21 6.074-3.94 11.508-6.241 16.827z" fill="url(#c)"/>  </g></svg>