<?xml version="1.0" encoding="utf-8"?>
<!-- Generator: Adobe Illustrator 22.1.0, SVG Export Plug-In . SVG Version: 6.00 Build 0)  -->
<svg version="1.1" id="Layer_1" xmlns="http://www.w3.org/2000/svg" xmlns:xlink="http://www.w3.org/1999/xlink" x="0px" y="0px"
	 viewBox="0 0 915.1 386.6" style="enable-background:new 0 0 915.1 386.6;" xml:space="preserve">
<style type="text/css">
	.st0{fill:url(#SVGID_1_);}
	.st1{fill:url(#SVGID_2_);}
	.st2{fill:url(#SVGID_3_);}
</style>
<title>pricing</title>
<linearGradient id="SVGID_1_" gradientUnits="userSpaceOnUse" x1="218.2606" y1="1.0867" x2="218.9506" y2="1.0867" gradientTransform="matrix(297.61 0 0 296.3 -64938.2305 -83.6317)">
	<stop  offset="0" style="stop-color:#F5F6F7"/>
	<stop  offset="1" style="stop-color:#F5F6F7;stop-opacity:0"/>
</linearGradient>
<path class="st0" d="M280.2,187.6c-34.7-55.4-91.7-15.4-163.1-37.8c-55.4,34.6-57.1,155.5,0,135.2s70.2,100.4,125.6,65.8
	S314.9,243.1,280.2,187.6L280.2,187.6z M295.7,178.4c39.8,63.7,20.4,147.6-43.3,187.4s-147.6,20.4-187.4-43.3
	C25.3,258.8-9.8,144.3,53.8,104.5S255.9,114.7,295.7,178.4L295.7,178.4z"/>
<linearGradient id="SVGID_2_" gradientUnits="userSpaceOnUse" x1="220" y1="329.5468" x2="340.24" y2="329.5468" gradientTransform="matrix(1 0 0 -1 -220 388)">
	<stop  offset="0" style="stop-color:#004E7F"/>
	<stop  offset="1" style="stop-color:#B32C39"/>
</linearGradient>
<path class="st1" d="M120.2,55.9l-0.3-4.6c-0.1-1.5-0.5-3-0.7-4.5c-0.1-0.8-0.3-1.5-0.4-2.2l-0.6-2.2l-0.6-2.2l-0.3-1.1l-0.4-1.1
	l-1.7-4.2c-1.3-2.8-2.7-5.4-4.3-8c-3.1-5.2-6.9-10-11.3-14.3C99,11,98.5,10.4,97.9,10l-1.8-1.4c-1.2-1-2.4-1.9-3.7-2.8
	c-1.3-0.8-2.6-1.7-3.9-2.4s-2.8-1.3-4.2-1.9c-0.7-0.3-0.7-0.1,0.1,0.2c1.2,0.6,2.5,1.2,3.6,1.8s2.3,1.5,3.4,2.2l1.7,1.2
	c0.5,0.4,1,0.8,1.6,1.3l3,2.6c1,0.9,1.9,1.9,2.8,2.9c0.5,0.5,0.9,1,1.4,1.4l1.3,1.5c0.8,1,1.7,2,2.5,3.1L108,23c3,4.3,5.5,9,7.3,14
	c0.9,2.5,1.7,5,2.3,7.6c0.3,1.3,0.5,2.6,0.7,3.9c0.2,1.3,0.4,2.6,0.4,3.9l0.2,4.1c0,1.4-0.1,2.7-0.2,4.1l-0.1,2c0,0.7-0.2,1.3-0.3,2
	l-0.7,4c-0.3,1.3-0.7,2.6-1,3.9l-0.5,2l-0.7,1.9c-0.5,1.3-0.9,2.5-1.5,3.8l-1.8,3.6c-2.5,4.8-5.6,9.2-9.3,13.2
	c-0.5,0.5-0.9,1-1.4,1.5l-1.5,1.5c-1,0.9-2,1.9-3,2.7l-3.3,2.5c-0.5,0.4-1.1,0.8-1.7,1.1l-1.8,1.1c-2.3,1.4-4.8,2.6-7.3,3.6
	c-1.3,0.4-2.6,0.9-3.9,1.3c-0.6,0.2-1.3,0.4-1.9,0.6l-2,0.5c-5.3,1.2-10.6,1.7-16,1.6l-4-0.2l-1-0.1c-0.3,0-0.7-0.1-1-0.1l-2-0.3
	c-2.7-0.4-5.3-1-7.9-1.7c-1.3-0.3-2.5-0.9-3.8-1.3l-1.9-0.7c-0.6-0.3-1.2-0.6-1.8-0.8c-1.2-0.6-2.4-1.2-3.6-1.8l-3.4-2.1
	c-4.5-2.9-8.6-6.4-12.2-10.4L14.8,94l-1.2-1.6c-0.8-1.1-1.6-2.1-2.4-3.3c-1.5-2.2-2.8-4.6-4-7c-1.2-2.4-2.2-4.9-3-7.5
	c-0.4-1.3-0.7-2.6-1-3.9l-0.5-2l-0.3-2c-0.2-1.3-0.4-2.7-0.5-4l-0.1-4c0-0.7-0.1-1.3-0.1-2l0.1-2C2,53.4,2,52,2.1,50.7
	C2.7,44.8,4.2,39,6.4,33.5l1.8-4.1c0.7-1.3,1.5-2.6,2.2-3.9c0.8-1.3,1.6-2.5,2.5-3.7l1.3-1.8c0.4-0.6,1-1.1,1.5-1.7
	c0.9-1,1.7-1.9,2.6-2.9l2.9-2.6c0.5-0.4,0.9-0.9,1.5-1.3l1.6-1.2c1-0.8,2-1.6,3.1-2.3c2.2-1.4,4.3-2.9,6.6-4
	c1.1-0.6,2.2-1.3,3.4-1.8l3.5-1.7c0.8-0.4,0.2-0.7-0.6-0.3c-1.1,0.5-2.3,1-3.4,1.5s-2.2,1.1-3.3,1.7c-2.3,1-4.4,2.4-6.6,3.6
	c-4.3,2.6-8.3,5.9-11.7,9.6c-1.8,1.9-3.4,4-4.9,6.2c-0.8,1.1-1.4,2.3-2.1,3.4c-0.7,1.1-1.3,2.3-1.9,3.5l-1.6,3.6
	c-0.5,1.2-0.9,2.5-1.3,3.7l-0.6,1.9c-0.2,0.6-0.3,1.3-0.5,1.9l-0.9,3.8c-0.3,1.3-0.4,2.7-0.6,4l-0.3,2c-0.1,0.7-0.1,1.4-0.1,2
	L0,56.7c0,1.4,0.1,2.7,0.1,4.1l0.1,2c0.1,0.7,0.2,1.4,0.3,2l0.6,4.1l1,4c0.2,0.7,0.3,1.3,0.5,2l0.7,1.9c1.8,5.2,4.4,10.1,7.6,14.6
	l2.5,3.3c0.9,1,1.8,2,2.8,3l1.4,1.5l1.5,1.4c1,0.9,2,1.9,3.1,2.7c4.3,3.4,9,6.3,14,8.6c1.3,0.6,2.6,1,3.9,1.5l1.9,0.7
	c0.7,0.2,1.3,0.4,2,0.5c1.3,0.3,2.7,0.7,4,1l4.1,0.7c0.7,0.1,1.4,0.2,2,0.3l2,0.1c1.4,0.1,2.8,0.2,4.1,0.2l4.1-0.1
	c0.7,0,1.4,0,2.1-0.1l2-0.3c5.5-0.7,10.9-2.1,16-4.3l3.8-1.8c1.2-0.6,2.4-1.4,3.6-2l1.8-1.1c0.6-0.4,1.1-0.8,1.7-1.2
	c1.1-0.8,2.2-1.6,3.3-2.4c2.1-1.7,4.1-3.6,6-5.6l1.4-1.5c0.5-0.5,0.9-1,1.4-1.6l2.5-3.3c0.4-0.5,0.8-1.1,1.2-1.7l1.1-1.8l1.1-1.8
	c0.4-0.6,0.6-1.2,0.9-1.9l1.8-3.8c0.5-1.3,0.9-2.6,1.4-3.9c0.2-0.7,0.5-1.3,0.6-2l0.5-2c0.3-1.4,0.7-2.7,0.9-4.1
	c0.4-2.7,0.7-5.5,0.9-8.2l0.1-2.3V57C120.2,56.6,120.2,56.3,120.2,55.9"/>
<linearGradient id="SVGID_3_" gradientUnits="userSpaceOnUse" x1="217.5923" y1="1.4087" x2="218.7307" y2="1.4087" gradientTransform="matrix(164.18 0 0 190.95 -34984.9688 -58.9704)">
	<stop  offset="0" style="stop-color:#B32C39"/>
	<stop  offset="1" style="stop-color:#004E7F"/>
</linearGradient>
<path class="st2" d="M878.3,204.8c-2.5,5.2-4.6,10.8-8,15.7c-0.4,0.7-2-0.4-1.7-1.1c2.8-5.6,5.6-11,7.9-16.7s4.8-11.6,4.8-18
	c0.1-7-1.2-13.9-3.7-20.4c-0.7-1.6-1.5-3.1-2.4-4.6l-3-4.2c-1.1-1.3-2.3-2.6-3.3-3.9s-2.3-2.4-3.3-3.8c-0.4-0.5-0.8-1.1-1.2-1.6
	s-0.9-1-1.3-1.6c-0.9-1-1.6-2.2-2.5-3.2c-1.9-2-3.7-4.2-6-5.7c-4.5-3.3-9.8-5.2-14.9-7c-1.3-0.4-2.6-0.8-4-1.2s-2.7-0.4-4.1-0.6
	c-1.3-0.2-2.7-0.3-4.1-0.4c-1.4,0-2.7-0.3-4.1-0.3c1.3,4.2-5.5,22.1-11,23.2c-5.4,1.2,3.4,26.8-1.6,29.3
	c-1.2,0.7-21.8-44.6-23.1-43.9c-0.6,0.3-1.3,0.6-1.9,1l-1.8,1.1c-1.2,0.8-2.5,1.4-3.6,2.3s-2.2,1.8-3.3,2.7
	c-4.1,4,51,12.4,48.2,17.3c-1.6,2.4-60.3,1.9-61.6,4.5c-0.5,1.3-0.9,2.7-1.4,4c-0.2,0.7-0.5,1.3-0.7,2l-0.5,2.1
	c-1.6,5.4-4.1,11.1-4.1,17.1c0,6.8,2.4,13.4,4.5,19.8s38.9,2.3,43.2,7.7s-23.9,20.3-18.2,24.1s41.7,32.8,48.8,34.5
	c6.8,1.6-16.3-22.7-9.4-23.4c6.8-0.8,13.4-2.6,19.7-5.4c6.8-2.9,12.5-7.9,17.4-13.1c1.6-1.6,3.1-3.4,4.8-4.9
	c1.5-1.7,3.3-3.3,5.2-4.6c0.2-0.1,42.1-13.7,41.9-13.5c-4.9,4.5-93.2,36.7-56,29.1s18.3,11.8,10.6,14.2
	c-7.5,2.4-50.1,52.5-58.3,52.1s-13.1-53.2-20.5-56.7c-6.7-3.2-57.7,69.7-18.8-12c-5.3-5.3-9.6-11.5-13-18.1
	c-3.5-6.6-5.2-13.9-6.4-21s-2.5-14.5-1.4-21.8c1-7.3,3.2-14.3,6.3-20.9c3.3-6.5,7.6-12.4,12.6-17.7c5-5.2,11.1-9.2,17.3-12.7
	c6.2-3.5,13-6,20-7.4c1.8-0.3,3.5-0.8,5.3-1.1l5.3-1c3.6-0.5,7.3-0.6,10.9-0.2l2.7,0.3l2.7,0.7c1.8,0.4,3.5,0.9,5.2,1.5l5.1,1.9
	c1.6,0.8,3.3,1.6,4.9,2.3c6.5,3.2,12,8,17,12.9s9.9,10.1,13.1,16.4c2.9,5.8,5.6,12,6.4,18.4c0.7,6.5-0.6,12.8-1.6,18.8
	c-1.2,6.1-3.9,11.5-6.2,16.8L878.3,204.8z"/>
</svg>
