<?xml version="1.0" encoding="utf-8"?>
<!-- Generator: Adobe Illustrator 22.1.0, SVG Export Plug-In . SVG Version: 6.00 Build 0)  -->
<svg version="1.1" id="Layer_1" xmlns="http://www.w3.org/2000/svg" xmlns:xlink="http://www.w3.org/1999/xlink" x="0px" y="0px"
	 viewBox="0 0 21 18" style="enable-background:new 0 0 21 18;" xml:space="preserve">
<style type="text/css">
	.st0{fill:url(#SVGID_1_);}
</style>
<linearGradient id="SVGID_1_" gradientUnits="userSpaceOnUse" x1="0" y1="8.64" x2="20.376" y2="8.64">
	<stop  offset="0" style="stop-color:#004E7F"/>
	<stop  offset="1" style="stop-color:#B32C39"/>
</linearGradient>
<path class="st0" d="M9.2,1C7.5,4.8,6.6,7.7,6.6,9.6s0.7,3.5,2.2,4.8c-0.5,0.9-1.1,1.6-1.8,2.2c-0.7,0.5-1.6,0.8-2.6,0.8
	c-1.3,0-2.3-0.4-3.1-1.3c-0.8-0.9-1.2-2-1.2-3.3c0-2.1,0.8-4.4,2.4-6.9S5.6,1.3,6.9,0L9.2,1z M20.4,1c-1.7,3.8-2.6,6.6-2.6,8.6
	s0.7,3.5,2.2,4.8c-1.1,2-2.5,3-4.5,3c-1.3,0-2.3-0.4-3.1-1.3s-1.2-2-1.2-3.3c0-2.1,0.8-4.4,2.4-6.9s3.1-4.4,4.5-5.7
	C18.1,0,20.4,1,20.4,1z"/>
</svg>
