<?xml version="1.0" encoding="utf-8"?>
<!-- Generator: Adobe Illustrator 22.1.0, SVG Export Plug-In . SVG Version: 6.00 Build 0)  -->
<svg version="1.1" id="Layer_1" xmlns="http://www.w3.org/2000/svg" xmlns:xlink="http://www.w3.org/1999/xlink" x="0px" y="0px"
	 viewBox="0 0 202 214" style="enable-background:new 0 0 202 214;" xml:space="preserve">
<style type="text/css">
	.st0{fill:url(#SVGID_1_);}
	.st1{fill:url(#SVGID_2_);}
	.st2{fill:url(#SVGID_3_);}
</style>
<g>
	
		<linearGradient id="SVGID_1_" gradientUnits="userSpaceOnUse" x1="-750.9976" y1="15.3094" x2="-748.1221" y2="15.3094" gradientTransform="matrix(126.677 0 0 23.235 95085.8125 -153.3648)">
		<stop  offset="0" style="stop-color:#D51920"/>
		<stop  offset="1" style="stop-color:#004E7F"/>
	</linearGradient>
	<path class="st0" d="M101,210.5c-7.2,0.4-14.5,1.1-21.2,2.3c-2,0.3-4,0.7-5.8,1.1c19.6-9.2,40.4-15.9,61.7-19.9
		c5.7-0.9,11.3-2,17-2.5l4.3-0.5l2.1-0.2h0.4c1.5,0.2,3.7,0.4,6.6,0.7l3.3,0.3c1.2,0.1,2.4,0.2,3.7,0.4l8.4,1.2
		c0.8,0.1,1.5,0.2,2.3,0.3s1.6,0.3,2.4,0.4l4.9,0.9c1.7,0.3,3.4,0.6,5.1,1l4.5,1.1C166.5,194.6,132.6,199.4,101,210.5L101,210.5z"/>
	
		<linearGradient id="SVGID_2_" gradientUnits="userSpaceOnUse" x1="-749.0956" y1="2.435" x2="-748.1348" y2="2.435" gradientTransform="matrix(110.121 0 0 177.781 82495.4766 -343.999)">
		<stop  offset="0" style="stop-color:#D51920"/>
		<stop  offset="1" style="stop-color:#004E7F"/>
	</linearGradient>
	<path class="st1" d="M110.1,177.8c-2.6-17.7-7.1-35.2-13.2-52c-6.2-16.8-14.1-33-23.6-48.2C54.4,47.1,29.3,20.6,0,0"/>
	
		<linearGradient id="SVGID_3_" gradientUnits="userSpaceOnUse" x1="-747.1718" y1="7.1867" x2="-747.1718" y2="8.1875" gradientTransform="matrix(90.771 0 0 47.866 67977.8828 -290.0006)">
		<stop  offset="0" style="stop-color:#D51920"/>
		<stop  offset="1" style="stop-color:#004E7F"/>
	</linearGradient>
	<path class="st2" d="M178.8,79.6c1.9,1.7,4,3.4,6.2,5.4c5.3,4.8,11.1,10.6,16.7,16.9c-26.2-21.8-57-38.3-90.7-47.9"/>
</g>
</svg>
