<?xml version="1.0" encoding="utf-8"?>
<!-- Generator: Adobe Illustrator 22.1.0, SVG Export Plug-In . SVG Version: 6.00 Build 0)  -->
<svg version="1.1" id="Layer_1" xmlns="http://www.w3.org/2000/svg" xmlns:xlink="http://www.w3.org/1999/xlink" x="0px" y="0px"
	 viewBox="0 0 83 40" style="enable-background:new 0 0 83 40;" xml:space="preserve">
<style type="text/css">
	.st0{fill:url(#SVGID_1_);}
</style>
<linearGradient id="SVGID_1_" gradientUnits="userSpaceOnUse" x1="7.763098e-04" y1="17.9999" x2="83.0008" y2="17.9999">
	<stop  offset="0" style="stop-color:#004E7F"/>
	<stop  offset="1" style="stop-color:#B32C39"/>
</linearGradient>
<path class="st0" d="M12.2,3c0.2,0.1,0.3,0.3,0.5,0.4c0.3,0.2,0.5,0.5,0.7,0.8c0.3,0.3,0.5,0.7,0.8,1c0.5,0.7,0.9,1.4,1.1,2.2
	c0.2,0.5,0.2,1.1,0.2,1.7c0,0.5-0.1,1.1-0.4,1.5c-0.4,0.7-1.2,1.2-1.9,1.5c-1,0.2-2,0.3-3-0.1c-0.3-0.2-0.7-0.3-1-0.6
	c-0.6-0.5-1-1.4-0.9-2.2c0.2-1.4,1.1-2.7,2-3.8c0.1,0.2,0,0.3,0.1,0.5c0.1,0.3,0.2,0.7,0.5,1c0.3-0.3,0.7-0.6,0.9-0.9
	c0.3-0.4,0.5-0.8,0.5-1.2C12.3,4.2,12.4,3.6,12.2,3C12.2,3.1,12.2,3,12.2,3z M0,9.6c1.6,0,3.1,0,4.7,0c0,1.5,0,3.1,0,4.6
	c1.1,0,2.2,0,3.3,0c0,0.1,0,0.2,0,0.4c0,1.3,0,2.5,0,3.8c-1.1,0-2.2,0-3.3,0c0,2.3,0,4.6,0,6.8c0,0.2,0.1,0.4,0.1,0.6
	c0,0.2,0.1,0.3,0.1,0.5c0.1,0.4,0.3,0.8,0.6,1.1c0.4,0.4,0.9,0.6,1.4,0.7c0.5,0.1,0.9,0.1,1.4,0.1c0,0.1,0,0.2,0,0.2
	c0,1.2,0,2.4,0,3.6c0,0.2,0,0.3-0.1,0.5c-0.7,0-1.3,0-2,0c-0.4-0.1-0.8,0-1.2-0.2c-1.1-0.3-2.1-0.8-2.9-1.6c-1.1-1.1-1.7-2.6-2-4.1
	c-0.1-0.2,0-0.4-0.1-0.5C0,25.8,0,25.4,0,25C0,19.9,0,14.7,0,9.6L0,9.6z M22.7,13.9c0.3-0.1,0.6,0,0.9-0.1c0.6-0.1,1.2,0,1.7,0
	c0.4,0,0.8,0.1,1.2,0.2c1.5,0.4,2.9,1.1,3.9,2.3c0.2,0.3,0.5,0.5,0.6,0.8c0.4,0.7,0.7,1.4,1,2.2c0.2,0.6,0.2,1.1,0.3,1.7
	c0,1.3,0,2.6,0,3.8c0,2.5,0,5.1,0,7.6c-1.6,0-3.1,0-4.7,0c0,0,0,0-0.1,0c0-3.6,0-7.1,0-10.7c0-0.4-0.1-0.9-0.2-1.3
	c-0.2-0.4-0.4-0.8-0.7-1.2c-0.2-0.2-0.4-0.3-0.6-0.5c-0.3-0.2-0.7-0.3-1-0.4c-0.2,0-0.4,0-0.5-0.1c-0.7,0-1.4,0-2.1,0.3
	c-0.5,0.2-0.9,0.5-1.3,1c-0.5,0.6-0.7,1.5-0.7,2.3c0,3.5,0,7.1,0,10.6c-1.6,0-3.1,0-4.7,0c0-3.4,0-6.8,0-10.2c0-0.4,0-0.9,0-1.3
	c0.1-0.2,0-0.5,0.1-0.7c0.1-0.8,0.4-1.6,0.8-2.3c0.3-0.6,0.7-1.3,1.3-1.8c0.4-0.4,0.8-0.8,1.3-1.1C20.4,14.5,21.5,14.1,22.7,13.9
	L22.7,13.9z M78.4,13.9c0.6,0,1.2-0.1,1.7,0c0.3,0,0.6,0,0.9,0c0.1,0.6,0,1.2,0,1.7v2.3c0,0.1,0,0.3,0,0.4c-0.2-0.1-0.4-0.1-0.5-0.1
	c-0.7-0.1-1.4,0-2.1,0.2c-0.8,0.3-1.5,0.8-1.9,1.6c-0.1,0.1-0.1,0.3-0.2,0.5c-0.2,0.7-0.2,1.5-0.2,2.3c0,3.3,0,6.5,0,9.8
	c-1.6,0-3.1,0-4.7,0c0,0,0,0,0-0.1V21.9c0-0.4,0.1-0.9,0.1-1.3c0.1-0.2,0.1-0.5,0.1-0.7c0.3-1.7,1.2-3.3,2.6-4.3
	c0.3-0.3,0.6-0.4,0.9-0.7C76.1,14.3,77.3,14,78.4,13.9z M9.5,14.3c1.6,0,3.1,0,4.7,0c0,6.1,0,12.1,0,18.2c0,0.1,0,0.2-0.1,0.2H9.5
	c0-1,0-2,0-3C9.5,24.5,9.5,19.4,9.5,14.3L9.5,14.3z M58.8,26.5c0.4-0.2,0.8-0.4,1.2-0.5c0.6-0.2,1.2-0.5,1.7-0.7
	c1.2-0.6,2.5-1,3.7-1.5c0.3-0.2,0.6-0.2,0.9-0.4c0.3-0.1,0.7-0.2,1-0.4c0.3-0.2,0.6-0.2,0.9-0.4c0.4-0.2,0.7-0.3,1.1-0.5
	c0.4-0.2,0.8-0.3,1.2-0.5c0.1-0.1,0.3-0.1,0.3-0.2c-0.1-0.2-0.1-0.4-0.1-0.5c-0.1-0.3-0.2-0.6-0.2-0.9c-0.3-0.9-0.7-1.8-1.3-2.6
	c-0.7-1-1.7-1.9-2.8-2.5c-0.7-0.4-1.5-0.7-2.3-0.9c-0.5-0.1-1-0.2-1.5-0.2c-0.5-0.1-0.9-0.1-1.4,0c-0.8,0-1.5,0.2-2.3,0.4
	c-1.3,0.5-2.6,1.2-3.6,2.1c-0.3,0.3-0.5,0.6-0.8,0.9c-0.4,0.6-0.9,1.2-1.2,1.8c-0.4,1-0.8,2-0.9,3.1c-0.1,0.5-0.1,1.1-0.1,1.6
	c0,0.3,0,0.7,0.1,1c0,0.3,0.1,0.7,0.2,1c0.1,0.7,0.4,1.4,0.7,2c0.8,1.6,2,3,3.6,3.9c1,0.6,2.1,1.1,3.3,1.2c1,0.2,2,0.2,2.9,0.1
	c0.3,0,0.7-0.1,1-0.1c1.4-0.3,2.8-0.9,3.9-1.9c0.3-0.3,0.6-0.5,0.9-0.9c0.4-0.4,0.7-1,1-1.5c0.3-0.6,0.5-1.1,0.7-1.7
	c-0.1,0-0.2,0-0.3,0c-1.6,0-3.1,0-4.7,0c-0.1,0-0.1,0.2-0.2,0.3c-0.3,0.4-0.6,0.7-1,1c-0.5,0.4-1.1,0.6-1.7,0.7
	c-0.2,0-0.3,0-0.5,0.1c-0.4,0-0.8,0-1.1,0c-0.4-0.1-0.8-0.2-1.2-0.3c-0.6-0.3-1.2-0.7-1.7-1.2c-0.1-0.1-0.3-0.3-0.4-0.5
	c0.1,0,0.2-0.1,0.3-0.1C58.4,26.7,58.6,26.6,58.8,26.5L58.8,26.5z M56.8,23.2c-0.1-0.2,0-0.5,0-0.7c0.1-0.3,0.1-0.7,0.3-1
	c0.3-0.7,0.7-1.5,1.3-2.1c0.3-0.2,0.5-0.5,0.8-0.6c0.2-0.1,0.4-0.3,0.7-0.4c0.4-0.1,0.9-0.3,1.3-0.3c0.4-0.1,0.8,0,1.3,0
	c1.1,0.2,2.2,0.6,2.9,1.5c0.1,0.2-0.2,0.2-0.3,0.3c-0.4,0.2-0.9,0.4-1.3,0.6c-0.2,0-0.4,0.2-0.5,0.2c-1.4,0.6-2.8,1.1-4.1,1.7
	C58.3,22.6,57.6,22.9,56.8,23.2z M51.9,6.2c-1.5,0-2.9,0-4.4,0c-0.1,0-0.2,0-0.3,0c0,3.1,0,6.2,0,9.3c0,0.1,0,0.2,0,0.3
	c-0.1,0-0.2-0.1-0.3-0.2c-0.7-0.6-1.4-1.1-2.3-1.4c-0.6-0.2-1.2-0.3-1.8-0.4c-0.7,0-1.4,0-2,0c-0.1,0-0.1,0-0.2,0
	c-1.5,0.2-2.9,0.9-4.1,1.9c-0.7,0.6-1.3,1.2-1.8,2c-0.5,0.8-0.9,1.6-1.2,2.5c-0.2,0.5-0.3,1.1-0.4,1.6c-0.1,0.9-0.1,1.7-0.1,2.6
	c0,0.2,0.1,0.4,0.1,0.7c0.1,0.7,0.3,1.4,0.6,2.1c0.2,0.7,0.6,1.3,1,1.8c0.3,0.3,0.5,0.7,0.8,1c0.5,0.5,0.9,1,1.5,1.3
	c0.7,0.5,1.5,0.8,2.3,1.1c0.3,0.1,0.6,0.2,0.9,0.2c0.3,0,0.5,0.1,0.7,0.1c0.1,0,0.3,0.1,0.4,0.1c0.6,0,1.3,0,1.9,0
	c0.1,0,0.2,0,0.3-0.1c0.4,0,0.9-0.2,1.3-0.2c0.6-0.2,1.2-0.3,1.7-0.6c0.8-0.4,1.5-0.9,2.1-1.4c0.8-0.7,1.4-1.5,1.9-2.5
	c0.2-0.4,0.4-0.8,0.6-1.3c0.3-0.6,0.4-1.3,0.5-1.9c0.1-0.6,0.1-1.2,0.1-1.8L51.9,6.2L51.9,6.2z M47.2,24.1c0,0.7-0.3,1.4-0.6,2
	c-0.5,1-1.4,1.7-2.4,2.2c-0.2,0.1-0.4,0.1-0.5,0.2c-0.2,0-0.4,0-0.6,0.1c-0.6,0-1.2,0.1-1.7-0.1c-0.2-0.1-0.5-0.2-0.7-0.3
	c-0.3-0.2-0.6-0.3-0.9-0.5c-0.5-0.3-0.8-0.8-1.2-1.2c-0.3-0.4-0.5-0.9-0.6-1.4c-0.1-0.3-0.1-0.6-0.2-0.8c0-0.7-0.1-1.4,0.1-2.1
	c0.1-0.2,0.1-0.5,0.2-0.7c0.2-0.4,0.3-0.7,0.6-1.1c0.1-0.3,0.4-0.5,0.6-0.7c0.5-0.6,1.2-0.9,1.9-1.2c0.3-0.1,0.5-0.2,0.8-0.2
	c0.6-0.1,1.1,0,1.7,0.1c0.7,0.3,1.4,0.6,2,1.1c0.2,0.2,0.4,0.4,0.6,0.6C46.9,21.2,47.3,22.7,47.2,24.1z M78.4,30.3h1.7
	c0,0.1,0,0.3,0,0.4c-0.2,0-0.4,0-0.6,0c0,0.6,0,1.2,0,1.8c-0.2,0-0.4,0-0.5,0c0-0.5,0-0.9,0-1.4c0-0.1,0-0.3-0.1-0.4
	c-0.2,0-0.3,0-0.5,0C78.4,30.5,78.4,30.4,78.4,30.3z M80.5,30.3c0.2,0,0.5,0,0.7,0c0,0.2,0.1,0.3,0.2,0.5c0.1,0.2,0.2,0.4,0.2,0.7
	c0.1,0.1,0.1,0.2,0.1,0.3c0.1-0.5,0.3-1,0.5-1.5c0.2,0,0.5,0,0.7,0c0,0.7,0,1.4,0,2.1c-0.2,0-0.3,0-0.5,0c0-0.5,0-1,0-1.5
	c-0.1,0.1-0.1,0.1-0.2,0.2c-0.1,0.5-0.3,0.9-0.4,1.3c-0.1,0-0.3,0-0.4,0c0-0.3-0.2-0.5-0.2-0.7c-0.2-0.2-0.2-0.5-0.3-0.8
	c-0.1,0.2,0,0.4,0,0.6c0,0.3,0,0.6,0,0.9c-0.2,0-0.3,0.1-0.5-0.1C80.5,31.7,80.5,31,80.5,30.3z"/>
</svg>
